<?xml version="1.0" encoding="UTF-8"?>
<svg version="1.1" xmlns="http://www.w3.org/2000/svg" width="256" height="256">
<path d="M0 0 C1.20991104 -0.00708481 2.41982208 -0.01416962 3.66639709 -0.02146912 C5.00404395 -0.01917538 6.34169046 -0.01666569 7.67933655 -0.01396179 C9.09051788 -0.01830983 10.50169685 -0.02349328 11.91287231 -0.02944946 C15.74345412 -0.04284083 19.57393727 -0.043418 23.40453792 -0.04088616 C26.60289287 -0.03981656 29.80122786 -0.04469954 32.99957854 -0.04949158 C40.54519015 -0.06058721 48.09075198 -0.06102385 55.6363678 -0.05497742 C63.41966844 -0.04893642 71.20278837 -0.06125165 78.98605818 -0.08254749 C85.66982518 -0.10016229 92.35353465 -0.10616505 99.03732401 -0.10290974 C103.02867551 -0.10109656 107.01989809 -0.10373645 111.01122856 -0.11762428 C114.7648004 -0.13019612 118.51809046 -0.12826482 122.27165794 -0.11521339 C123.64829859 -0.11284665 125.02495904 -0.11558586 126.401577 -0.12383652 C128.28258463 -0.13429626 130.16367248 -0.12440493 132.04467773 -0.11352539 C133.62282965 -0.113777 133.62282965 -0.113777 135.23286343 -0.1140337 C139.12277067 0.39689588 141.95770457 1.81103528 144.38612366 4.93159485 C145.43975656 8.43880277 145.32995197 11.9005671 145.28114319 15.52632141 C145.27831329 16.31971924 145.2754834 17.11311707 145.27256775 17.93055725 C145.26139848 20.45742558 145.23630013 22.98393573 145.21083069 25.51069641 C145.20079667 27.22683711 145.19167156 28.94298339 145.18348694 30.65913391 C145.16146982 34.85979215 145.12696256 39.06018361 145.08583069 43.26069641 C146.49735413 43.20848938 146.49735413 43.20848938 147.93739319 43.15522766 C149.80524475 43.11462219 149.80524475 43.11462219 151.71083069 43.07319641 C152.94059631 43.03839172 154.17036194 43.00358704 155.43739319 42.96772766 C160.42079225 43.36789354 163.64822585 45.0173625 167.39833069 48.26069641 C170.16275442 51.53705046 170.2154189 54.37767639 170.23973083 58.50292969 C170.2483313 59.58933243 170.25693176 60.67573517 170.26579285 61.7950592 C170.27218277 63.58342194 170.27218277 63.58342194 170.27870178 65.40791321 C170.29096802 67.29124107 170.29096802 67.29124107 170.30348206 69.21261597 C170.32967497 73.3783606 170.34500885 77.54411514 170.35926819 81.70991516 C170.36462935 83.14577045 170.37000686 84.58162568 170.37540054 86.01748085 C170.39702696 91.99240467 170.41576176 97.96732582 170.42702293 103.94227886 C170.4432499 112.49481388 170.47639931 121.04689372 170.53342378 129.59925717 C170.57218162 135.61807653 170.5916626 141.63677445 170.5969435 147.65571529 C170.60058958 151.24771122 170.61252997 154.83922137 170.64504623 158.43108177 C170.68084595 162.4431633 170.67674131 166.45427244 170.66932678 170.46650696 C170.68573212 171.64862762 170.70213745 172.83074829 170.71903992 174.0486908 C170.66616849 181.04336881 169.79563675 185.91523952 165.08583069 191.26069641 C158.78758517 196.59649802 151.75119531 195.77756797 143.83973694 195.65132141 C142.45969466 195.64385034 141.07964169 195.6381615 139.69958496 195.63417053 C136.08753068 195.61898193 132.47613157 195.57976073 128.86433411 195.53535461 C125.1706783 195.49425408 121.47691544 195.47612818 117.78309631 195.45600891 C110.55037748 195.41325805 103.31819629 195.34509131 96.08583069 195.26069641 C96.53957431 198.26145422 96.99869065 201.26122983 97.46083069 204.26069641 C97.58715881 205.0998761 97.71348694 205.93905579 97.84364319 206.80366516 C98.6570099 212.04988043 99.72001065 217.12996373 101.08583069 222.26069641 C101.94305725 222.22589172 102.80028381 222.19108704 103.68348694 222.15522766 C117.36256341 221.83137128 117.36256341 221.83137128 123.46083069 227.44819641 C125.55353717 231.07018839 126.28280014 234.0833027 126.08583069 238.26069641 C124.36721126 243.51764995 121.91389764 245.69480729 117.08583069 248.26069641 C113.76506214 248.82943373 110.49946544 248.80778194 107.13661194 248.77827454 C106.15050934 248.78528381 105.16440674 248.79229309 104.14842224 248.79951477 C100.89810286 248.81707877 97.64865849 248.80547722 94.39833069 248.79194641 C92.13441298 248.79464177 89.87049639 248.79852456 87.60658264 248.80354309 C82.86550355 248.809436 78.12472623 248.80088153 73.38368225 248.78218079 C67.3106077 248.75939175 61.23824027 248.77251589 55.16519165 248.79647064 C50.49141627 248.81093398 45.81780816 248.80632008 41.14402771 248.79595947 C38.90495215 248.79329369 36.66586134 248.7965567 34.42680359 248.80587769 C31.29581043 248.81605171 28.16595779 248.80052922 25.03504944 248.77827454 C24.11227203 248.78637146 23.18949463 248.79446838 22.23875427 248.80281067 C16.7014195 248.73000147 13.45259856 247.99891759 9.08583069 244.26069641 C6.54767388 240.65815126 6.08583069 238.69080729 6.08583069 234.26069641 C6.89773073 229.70358004 8.71576419 227.40609181 12.08583069 224.26069641 C16.49583371 222.40385303 20.20161192 222.0385695 24.96083069 222.13569641 C26.11325256 222.15374329 27.26567444 222.17179016 28.45301819 222.19038391 C29.32184631 222.21358704 30.19067444 222.23679016 31.08583069 222.26069641 C31.73492749 219.07385213 32.37951017 215.88611046 33.02333069 212.69819641 C33.20573303 211.8029425 33.38813538 210.9076886 33.57606506 209.98530579 C33.8419342 208.66562805 33.8419342 208.66562805 34.11317444 207.31929016 C34.3566864 206.1174408 34.3566864 206.1174408 34.6051178 204.89131165 C35.18966758 201.6924676 35.641495 198.48169792 36.08583069 195.26069641 C35.32907547 195.27402008 34.57232025 195.28734375 33.79263306 195.30107117 C26.62875774 195.42175348 19.46538156 195.5128738 12.30075169 195.57156944 C8.61807125 195.60276151 4.93623707 195.64500567 1.25404358 195.71333313 C-2.30571759 195.77896839 -5.86466971 195.81449344 -9.4249897 195.82995987 C-11.4308049 195.84629227 -13.43629865 195.89306069 -15.44161987 195.94047546 C-22.52218491 195.94306195 -27.3494026 195.31739446 -33.16015625 191.13853455 C-38.77537374 185.12690911 -38.34318735 178.79348667 -38.30235291 171.01655579 C-38.30760986 169.78661392 -38.31286682 168.55667206 -38.31828308 167.28945923 C-38.3292026 163.92775279 -38.32667417 160.56660238 -38.31714582 157.20492744 C-38.3095294 153.68033752 -38.31660033 150.15577071 -38.32130432 146.63117981 C-38.32675612 140.71320857 -38.31958545 134.79534978 -38.30528259 128.87739563 C-38.2889571 122.04381023 -38.29424602 115.21049339 -38.31076181 108.3769145 C-38.32439316 102.50071658 -38.32628831 96.62459931 -38.3184458 90.74839067 C-38.31377831 87.24273816 -38.31311886 83.73721171 -38.32305527 80.23156738 C-38.33336186 76.32255178 -38.31906055 72.41383493 -38.30235291 68.50483704 C-38.3084256 67.34829117 -38.31449829 66.1917453 -38.320755 65.00015259 C-38.27614551 59.36732717 -38.21063371 55.06434744 -34.91416931 50.26069641 C-29.52369298 44.99000844 -25.15197004 43.15107442 -17.71104431 43.21772766 C-16.81224548 43.22393127 -15.91344666 43.23013489 -14.9874115 43.23652649 C-14.30324158 43.24450256 -13.61907166 43.25247864 -12.91416931 43.26069641 C-12.92987976 42.19633362 -12.94559021 41.13197083 -12.96177673 40.03535461 C-13.01619986 36.07514556 -13.05056424 32.11496938 -13.07896423 28.15449524 C-13.09402271 26.44252457 -13.11447387 24.7305923 -13.14048767 23.01875305 C-13.17700121 20.55373136 -13.19392493 18.08922106 -13.20713806 15.62397766 C-13.22262192 14.86232803 -13.23810577 14.10067841 -13.25405884 13.31594849 C-13.25548531 8.78101645 -12.8300677 5.80063734 -9.91416931 2.26069641 C-6.5979022 0.13370932 -3.89477806 0.00760225 0 0 Z M-4.91416931 9.26069641 C-4.91416931 13.88069641 -4.91416931 18.50069641 -4.91416931 23.26069641 C41.94583069 23.26069641 88.80583069 23.26069641 137.08583069 23.26069641 C137.08583069 18.64069641 137.08583069 14.02069641 137.08583069 9.26069641 C135.35407935 7.52894507 133.01631643 8.13457609 130.65736389 8.13371277 C129.47945282 8.13089294 128.30154175 8.12807312 127.0879364 8.12516785 C125.78399933 8.12719208 124.48006226 8.12921631 123.13661194 8.13130188 C121.75879368 8.12994786 120.38097578 8.12816792 119.00315857 8.12599182 C115.25119522 8.12141757 111.49925924 8.12320701 107.74729538 8.12637091 C103.82929661 8.12889455 99.91130025 8.12655696 95.99330139 8.12498474 C89.41248654 8.12316306 82.8316829 8.12556932 76.25086975 8.13032532 C68.63177626 8.13576794 61.01270952 8.13400528 53.39361668 8.12849891 C46.8636963 8.12396775 40.33378401 8.12331725 33.80386257 8.12593758 C29.89871214 8.12750034 25.99357431 8.12769416 22.08842468 8.12440109 C18.41788601 8.12152233 14.74738199 8.12349816 11.07684708 8.12929535 C9.0791402 8.13125855 7.08143041 8.12826908 5.08372498 8.12516785 C3.9058139 8.12798767 2.72790283 8.1308075 1.51429749 8.13371277 C0.48410995 8.13408979 -0.54607758 8.13446682 -1.60748291 8.13485527 C-3.87727176 8.0012862 -3.87727176 8.0012862 -4.91416931 9.26069641 Z M-4.91416931 31.26069641 C-4.91416931 53.37069641 -4.91416931 75.48069641 -4.91416931 98.26069641 C-1.87053053 101.30433519 9.40886272 99.72258445 13.72108459 99.77558899 C15.70383255 99.80716141 17.68639361 99.85484543 19.66835022 99.91914368 C22.52958549 100.01072425 25.38741045 100.04926091 28.24989319 100.07710266 C29.56904221 100.1343325 29.56904221 100.1343325 30.9148407 100.19271851 C34.8062236 100.18052326 37.14477132 100.09995219 40.12287903 97.4440155 C41.98311653 95.28915911 41.98311653 95.28915911 43.54026794 93.03692627 C45.08583069 91.26069641 45.08583069 91.26069641 48.77333069 90.69819641 C53.9501523 91.57727933 53.9501523 91.57727933 56.08583069 92.26069641 C56.56020569 91.29132141 57.03458069 90.32194641 57.52333069 89.32319641 C59.08583069 86.26069641 59.08583069 86.26069641 60.08583069 85.26069641 C62.06202516 85.13554713 64.04321242 85.08496881 66.02333069 85.07319641 C67.10485413 85.05901672 68.18637756 85.04483704 69.30067444 85.03022766 C72.08583069 85.26069641 72.08583069 85.26069641 74.08583069 87.26069641 C74.79293747 88.91061223 75.46527058 90.57631897 76.08583069 92.26069641 C76.85926819 92.01319641 76.85926819 92.01319641 77.64833069 91.76069641 C81.1397942 91.04449877 83.50833545 90.7149768 87.08583069 91.26069641 C88.63139343 93.03692627 88.63139343 93.03692627 90.20155334 95.24482727 C92.7779015 98.31307641 92.7779015 98.31307641 96.32063293 99.98045349 C98.88762725 100.19903293 101.34793303 100.1887657 103.92176819 100.07710266 C105.30170456 100.0636808 105.30170456 100.0636808 106.70951843 100.04998779 C109.62869084 100.01204162 112.54300512 99.91785593 115.46083069 99.82319641 C117.4438498 99.79161967 119.42692874 99.76358796 121.41004944 99.73921204 C129.81488999 100.32506062 129.81488999 100.32506062 137.08583069 98.26069641 C137.08583069 76.15069641 137.08583069 54.04069641 137.08583069 31.26069641 C90.22583069 31.26069641 43.36583069 31.26069641 -4.91416931 31.26069641 Z M-28.5256958 55.76222229 C-30.71140525 59.69527427 -30.3060032 63.5614978 -30.25474548 67.98628235 C-30.25510709 68.98789524 -30.25546869 69.98950813 -30.25584126 71.02147293 C-30.25360252 74.26287591 -30.23075839 77.50376104 -30.20713806 80.74507141 C-30.2027271 82.74653372 -30.19966663 84.74799948 -30.19798279 86.74946594 C-30.18225546 94.16992888 -30.14037182 101.59031773 -30.10166931 109.01069641 C-30.03979431 125.59319641 -29.97791931 142.17569641 -29.91416931 159.26069641 C33.44583069 159.26069641 96.80583069 159.26069641 162.08583069 159.26069641 C162.14770569 142.16257141 162.20958069 125.06444641 162.27333069 107.44819641 C162.3006427 102.04597717 162.32795471 96.64375793 162.35609436 91.07783508 C162.36612659 86.24260999 162.36612659 86.24260999 162.37216187 81.40737915 C162.37677385 79.25082545 162.38733581 77.09427957 162.40255737 74.93777466 C162.42444346 71.67442854 162.42755119 68.41155584 162.42640686 65.14814758 C162.43720119 64.18463222 162.44799551 63.22111685 162.45911694 62.22840405 C162.45498445 61.35103242 162.45085196 60.47366079 162.44659424 59.56970215 C162.44935962 58.80553576 162.452125 58.04136938 162.45497417 57.25404644 C161.98500466 54.71624264 161.06838355 53.86062666 159.08583069 52.26069641 C156.32131036 50.87843625 154.03969438 51.16544254 150.96083069 51.19819641 C149.86512756 51.20721985 148.76942444 51.21624329 147.64051819 51.22554016 C146.37594788 51.2429425 146.37594788 51.2429425 145.08583069 51.26069641 C145.07996445 51.86346909 145.07409821 52.46624176 145.0680542 53.08728027 C145.00408059 59.36552733 144.91965047 65.64326366 144.82337952 71.9210968 C144.79014163 74.26347619 144.76210618 76.60593545 144.73939514 78.94844055 C144.70582901 82.31719474 144.65351049 85.68521772 144.59754944 89.05366516 C144.59115952 90.09967392 144.58476959 91.14568268 144.57818604 92.22338867 C144.39004492 101.54424723 144.39004492 101.54424723 141.08583069 105.26069641 C138.27213975 106.19859339 136.44272569 106.41001623 133.52259827 106.46601868 C132.60187027 106.4859639 131.68114227 106.50590912 130.73251343 106.52645874 C129.74180344 106.54317123 128.75109344 106.55988373 127.73036194 106.57710266 C126.71358871 106.59788376 125.69681549 106.61866486 124.64923096 106.64007568 C121.39900006 106.70549689 118.14868792 106.76442178 114.89833069 106.82319641 C112.6958483 106.86638868 110.49337416 106.9100032 108.29090881 106.95405579 C102.88930216 107.06117068 97.48761457 107.16295098 92.08583069 107.26069641 C93.57083069 108.25069641 93.57083069 108.25069641 95.08583069 109.26069641 C97.27333069 110.82319641 97.27333069 110.82319641 99.08583069 113.26069641 C99.79397768 117.9703005 99.75622423 121.2551061 97.08583069 125.26069641 C94.46083069 126.44819641 94.46083069 126.44819641 92.08583069 127.26069641 C91.88507644 131.04007586 91.88507644 131.04007586 92.83583069 133.63569641 C93.20767756 137.54008854 91.47114071 139.27905888 89.08583069 142.26069641 C85.20569993 144.84745025 83.55633315 144.05900042 79.08583069 143.26069641 C78.09583069 143.26069641 77.10583069 143.26069641 76.08583069 143.26069641 C75.63208069 144.23007141 75.17833069 145.19944641 74.71083069 146.19819641 C73.08583069 149.26069641 73.08583069 149.26069641 71.08583069 150.26069641 C67.31002606 150.85047588 63.83927733 151.04491797 60.08583069 150.26069641 C57.66463345 147.90646845 56.34347198 145.37353232 55.08583069 142.26069641 C54.20411194 142.7595636 54.20411194 142.7595636 53.30458069 143.26850891 C49.93783642 144.77406005 47.60362036 144.14014383 44.08583069 143.26069641 C41.11335444 141.14867381 40.25230644 139.81957928 39.21083069 136.32319641 C39.07696727 133.04354272 39.63101633 131.17032512 41.08583069 128.26069641 C39.20080629 126.10789768 39.20080629 126.10789768 36.52333069 125.26069641 C34.08583069 124.26069641 34.08583069 124.26069641 33.08583069 122.26069641 C32.57379615 117.91259988 32.22421555 114.41942022 34.89833069 110.82319641 C36.60526609 109.60395684 38.34047283 108.42426831 40.08583069 107.26069641 C39.52064224 107.25483017 38.9554538 107.24896393 38.37313843 107.24291992 C32.48415379 107.17892569 26.59571259 107.09449057 20.70716858 106.99824524 C18.51030141 106.96501586 16.31334928 106.93697775 14.11634827 106.91426086 C10.95606826 106.88067887 7.79656548 106.82836007 4.63661194 106.77241516 C3.65622452 106.76602524 2.6758371 106.75963531 1.66574097 106.75305176 C-7.11665936 106.56421341 -7.11665936 106.56421341 -10.91416931 103.26069641 C-11.87797008 100.36929411 -12.06528955 98.43415718 -12.11949158 95.42207336 C-12.1394368 94.44128311 -12.15938202 93.46049286 -12.17993164 92.44998169 C-12.19664413 91.39365036 -12.21335663 90.33731903 -12.23057556 89.24897766 C-12.25135666 88.1656163 -12.27213776 87.08225494 -12.29354858 85.96606445 C-12.35898728 82.50184025 -12.41790284 79.03753961 -12.47666931 75.57319641 C-12.51985992 73.22618327 -12.56347438 70.87917788 -12.60752869 68.53218079 C-12.71466288 62.77510037 -12.81643996 57.01794374 -12.91416931 51.26069641 C-14.35411037 51.22681544 -15.79428205 51.20264188 -17.23448181 51.18257141 C-18.03643982 51.16806946 -18.83839783 51.1535675 -19.66465759 51.1386261 C-23.59050298 51.35166307 -25.74950801 53.1755333 -28.5256958 55.76222229 Z M65.08583069 92.26069641 C64.63208069 93.04444641 64.17833069 93.82819641 63.71083069 94.63569641 C61.92203849 97.52528381 61.18337865 98.08688876 58.08583069 99.26069641 C55.50770569 99.45600891 55.50770569 99.45600891 52.83583069 99.38569641 C51.94379944 99.36764954 51.05176819 99.34960266 50.13270569 99.33100891 C49.11950256 99.29620422 49.11950256 99.29620422 48.08583069 99.26069641 C48.12063538 99.9245636 48.15544006 100.58843079 48.19129944 101.27241516 C48.4748359 110.52110446 48.4748359 110.52110446 45.08583069 114.26069641 C42.39833069 115.57319641 42.39833069 115.57319641 40.08583069 116.26069641 C40.78099497 119.44039671 40.78099497 119.44039671 43.52333069 120.69819641 C46.33661457 122.41361341 47.11218848 123.16274392 48.08583069 126.26069641 C48.295579 129.68658544 48.17508809 131.99292421 47.08583069 135.26069641 C50.02687805 136.52687651 50.02687805 136.52687651 52.89833069 135.63569641 C56.97882512 135.15563824 58.69529667 136.0003404 62.08583069 138.26069641 C63.83583069 140.94819641 63.83583069 140.94819641 65.08583069 143.26069641 C65.74583069 143.26069641 66.40583069 143.26069641 67.08583069 143.26069641 C67.68395569 142.31194641 68.28208069 141.36319641 68.89833069 140.38569641 C71.27233137 136.99426687 72.09742078 136.07650753 76.08583069 135.26069641 C78.81718145 135.40819952 81.37894323 135.80190193 84.08583069 136.26069641 C84.58083069 135.27069641 84.58083069 135.27069641 85.08583069 134.26069641 C84.75583069 133.60069641 84.42583069 132.94069641 84.08583069 132.26069641 C84.10145569 130.20210266 84.10145569 130.20210266 84.33583069 127.82319641 C84.40286194 127.04073547 84.46989319 126.25827454 84.53895569 125.45210266 C85.18622486 122.85840262 86.03149397 121.92637484 88.08583069 120.26069641 C90.27333069 119.07319641 90.27333069 119.07319641 92.08583069 118.26069641 C92.08583069 117.60069641 92.08583069 116.94069641 92.08583069 116.26069641 C91.13708069 115.84819641 90.18833069 115.43569641 89.21083069 115.01069641 C85.89602116 113.15440307 85.33497369 112.67181768 84.08583069 109.26069641 C83.89051819 106.68257141 83.89051819 106.68257141 83.96083069 104.01069641 C83.97887756 103.11866516 83.99692444 102.22663391 84.01551819 101.30757141 C84.03872131 100.63210266 84.06192444 99.95663391 84.08583069 99.26069641 C83.41036194 99.28389954 82.73489319 99.30710266 82.03895569 99.33100891 C80.70090881 99.35807922 80.70090881 99.35807922 79.33583069 99.38569641 C78.01325256 99.4205011 78.01325256 99.4205011 76.66395569 99.45600891 C73.91810075 99.2479896 72.38087958 98.75702785 70.08583069 97.26069641 C69.06278121 95.60807802 68.05967015 93.94278276 67.08583069 92.26069641 C66.42583069 92.26069641 65.76583069 92.26069641 65.08583069 92.26069641 Z M-29.91416931 167.26069641 C-31.37179109 180.50585656 -31.37179109 180.50585656 -25.91416931 186.26069641 C-22.92565862 187.75495176 -20.20862807 187.39706318 -16.87380981 187.40786743 C-16.14058937 187.41154412 -15.40736892 187.41522081 -14.65192968 187.41900891 C-12.18228838 187.43006758 -9.71268912 187.43389326 -7.24302673 187.43769836 C-5.47746649 187.44396133 -3.71190756 187.45060798 -1.9463501 187.45761108 C2.85949445 187.47503543 7.66532904 187.48557658 12.47119737 187.49381661 C15.47201794 187.49896335 18.47283541 187.5050392 21.47365379 187.51132774 C30.85757945 187.53038316 40.24149722 187.54461398 49.62543851 187.55293971 C60.46692773 187.56271677 71.30821303 187.58904707 82.14963037 187.62944061 C90.52335436 187.65957209 98.89701979 187.67440573 107.27079695 187.67772073 C112.2749715 187.68007446 117.27892829 187.68907687 122.28304482 187.7141819 C126.99034276 187.737416 131.69727885 187.74171471 136.40461922 187.73142052 C138.13280692 187.73092392 139.86101216 187.73728076 141.58914566 187.75097656 C143.94803997 187.76862599 146.30562583 187.76162471 148.66452026 187.7484436 C149.69118363 187.76489747 149.69118363 187.76489747 150.73858768 187.78168374 C155.43149552 187.71834059 157.78301772 186.55697463 161.08583069 183.26069641 C163.4756238 178.48111019 162.08583069 172.60443626 162.08583069 167.26069641 C98.72583069 167.26069641 35.36583069 167.26069641 -29.91416931 167.26069641 Z M44.08583069 195.26069641 C41.94058729 208.74015756 41.94058729 208.74015756 40.08583069 222.26069641 C57.24583069 222.26069641 74.40583069 222.26069641 92.08583069 222.26069641 C91.42583069 218.63069641 90.76583069 215.00069641 90.08583069 211.26069641 C89.42583069 205.98069641 88.76583069 200.70069641 88.08583069 195.26069641 C73.56583069 195.26069641 59.04583069 195.26069641 44.08583069 195.26069641 Z M15.08583069 232.26069641 C14.00014565 234.10337509 14.00014565 234.10337509 14.08583069 236.26069641 C14.90689772 238.53481272 14.90689772 238.53481272 17.08583069 240.26069641 C20.17071905 240.88654921 23.23658658 240.8064812 26.37489319 240.77827454 C27.3263623 240.78528381 28.27783142 240.79229309 29.25813293 240.79951477 C32.40932737 240.81714791 35.55962681 240.80545292 38.71083069 240.79194641 C40.89654208 240.79463979 43.08225231 240.79852092 45.26795959 240.80354309 C49.85124609 240.80944536 54.434221 240.80085152 59.01747131 240.78218079 C64.89924418 240.7593911 70.78028702 240.77251025 76.66203308 240.79647064 C81.17613753 240.81090877 85.69006824 240.8063317 90.20417786 240.79595947 C92.37316473 240.7932867 94.54216727 240.79658117 96.71113586 240.80587769 C99.74010642 240.81601041 102.76788655 240.80058768 105.79676819 240.77827454 C107.14807831 240.79041992 107.14807831 240.79041992 108.52668762 240.80281067 C113.30074778 240.84128831 113.30074778 240.84128831 117.20545959 238.39631653 C118.3483021 236.21052207 118.3483021 236.21052207 117.46083069 233.57319641 C116.24186075 230.94947804 116.24186075 230.94947804 113.08583069 230.26069641 C110.10947405 230.15871514 107.15644033 230.11386764 104.17982483 230.11543274 C103.26897629 230.11207413 102.35812775 230.10871552 101.41967773 230.10525513 C98.40343367 230.09574246 95.38724508 230.09380191 92.37098694 230.09272766 C90.27735369 230.08951551 88.18372066 230.08615147 86.09008789 230.0826416 C81.69942199 230.07664969 77.30877578 230.07480179 72.91810608 230.07539368 C67.28773676 230.07549535 61.65749341 230.06183802 56.02715397 230.04462147 C51.70264097 230.03351213 47.37815854 230.03147413 43.05363274 230.0320034 C40.9775747 230.03082187 38.9015159 230.02639045 36.82547188 230.01867104 C33.92396805 230.0088919 31.02273918 230.01174092 28.12123108 230.01777649 C27.2613559 230.01215698 26.40148071 230.00653748 25.51554871 230.00074768 C24.72345505 230.00494217 23.93136139 230.00913666 23.11526489 230.01345825 C22.4296602 230.01291348 21.7440555 230.01236872 21.0376749 230.01180744 C18.69228765 230.31087896 17.09840122 231.03345712 15.08583069 232.26069641 Z " fill="#F07C1E" transform="translate(61.91416931152344,3.7393035888671875)"/>
<path d="M0 0 C3.81854877 2.66808857 6.34230662 5.81988862 7.828125 10.27734375 C8.5746758 16.87898581 8.36353465 22.14363274 4.37890625 27.62109375 C0.9561077 31.27667708 -2.71109013 32.87157018 -7.546875 34.21484375 C-13.42718971 34.31622849 -18.101122 32.58281847 -23.046875 29.46484375 C-27.16009875 25.23064283 -28.36522312 21.59810185 -28.546875 15.77734375 C-28.34054869 9.43280971 -26.93773889 5.96643094 -22.296875 1.52734375 C-14.96326163 -3.75285787 -7.90638494 -4.37341371 0 0 Z M-19.171875 10.27734375 C-20.72211964 13.37783303 -20.46179515 15.85628593 -20.171875 19.27734375 C-18.37625095 22.03063396 -17.11932578 23.80361836 -14.171875 25.27734375 C-8.35841553 25.81099888 -8.35841553 25.81099888 -3.234375 23.40234375 C-0.61989945 20.70864167 -0.23131361 19.7924784 0.203125 16.02734375 C-0.29114796 11.08461417 -1.71015801 9.73906074 -5.171875 6.27734375 C-11.27031801 3.22812224 -14.85880048 6.06457329 -19.171875 10.27734375 Z " fill="#F0791E" transform="translate(138.171875,105.72265625)"/>
<path d="M0 0 C2.5625 -0.25 2.5625 -0.25 5 0 C6 1 6 1 6.18115234 4.07299805 C5.99100715 8.19494618 5.20877104 11.88495714 4.1015625 15.83203125 C3.90654144 16.54985275 3.71152039 17.26767426 3.5105896 18.00724792 C3.09957163 19.51179007 2.68419402 21.01514746 2.26464844 22.51733398 C1.62282491 24.82030457 0.99800949 27.12742406 0.375 29.43554688 C-0.02764813 30.9013161 -0.4312599 32.36682103 -0.8359375 33.83203125 C-1.02247894 34.52158401 -1.20902039 35.21113678 -1.4012146 35.92158508 C-2.769312 40.769312 -2.769312 40.769312 -5 43 C-9.55555556 42.44444444 -9.55555556 42.44444444 -11 41 C-10.60094225 33.4260467 -8.66670325 26.3749494 -6.61645508 19.09570312 C-6.05844117 17.11056064 -5.51391088 15.12205152 -4.97070312 13.1328125 C-2.26083104 3.39124657 -2.26083104 3.39124657 0 0 Z " fill="#EE6421" transform="translate(131,43)"/>
<path d="M0 0 C3.91866947 -0.43604521 5.52436144 -0.35554152 8.73828125 2.046875 C9.58777344 2.93890625 10.43726563 3.8309375 11.3125 4.75 C12.60607422 6.07257812 12.60607422 6.07257812 13.92578125 7.421875 C16.97730945 11.21473491 16.97730945 11.21473491 17 14 C15.77734375 15.96484375 15.77734375 15.96484375 13.9375 17.9375 C12.97457031 18.97197266 12.97457031 18.97197266 11.9921875 20.02734375 C9.44905522 22.54554336 6.82082231 24.79838258 4 27 C1.525 26.01 1.525 26.01 -1 25 C-0.62671065 19.64951939 0.9957657 17.49087093 5 14 C3.88371346 11.39533141 2.99673777 9.9972038 0.8125 8.125 C-1 6 -1 6 -0.75 2.75 C-0.5025 1.8425 -0.255 0.935 0 0 Z " fill="#ED5B22" transform="translate(147,51)"/>
<path d="M0 0 C0.875 2.625 0.875 2.625 1 6 C-0.71602887 8.34435944 -2.75668093 10.1663305 -5 12 C-3.85182066 14.58340351 -2.72475246 16.3067044 -0.8125 18.4375 C1 21 1 21 0.75 23.8125 C0.5025 24.534375 0.255 25.25625 0 26 C-1.75390625 26.69140625 -1.75390625 26.69140625 -4 27 C-5.96484375 25.77734375 -5.96484375 25.77734375 -7.9375 23.9375 C-8.62714844 23.29554687 -9.31679687 22.65359375 -10.02734375 21.9921875 C-12.54554336 19.44905522 -14.79838258 16.82082231 -17 14 C-15.62328036 9.87716405 -13.77703019 7.29175035 -10.75 4.1875 C-10.00234375 3.39730469 -9.2546875 2.60710938 -8.484375 1.79296875 C-5.43807685 -0.40553888 -3.67511885 -0.35582798 0 0 Z " fill="#EF6E20" transform="translate(109,51)"/>
<path d="M0 0 C2.55395487 -0.26711404 4.86274374 -0.34849029 7.4140625 -0.29296875 C8.50852188 -0.28660149 8.50852188 -0.28660149 9.62509155 -0.28010559 C11.95876759 -0.26329353 14.2915844 -0.22563868 16.625 -0.1875 C18.20571671 -0.17245634 19.78644693 -0.15876738 21.3671875 -0.14648438 C25.24512344 -0.11338201 29.12241598 -0.06158404 33 0 C33.495 2.97 33.495 2.97 34 6 C30.39624792 8.40250139 28.7495723 8.24537331 24.46875 8.23046875 C23.18355469 8.22853516 21.89835937 8.22660156 20.57421875 8.22460938 C19.90567871 8.21840576 19.23713867 8.21220215 18.54833984 8.20581055 C16.50735983 8.18756579 14.46683428 8.18530091 12.42578125 8.18554688 C2.42117199 8.14039066 2.42117199 8.14039066 -1 7 C-1.8125 5.125 -1.8125 5.125 -2 3 C-1.34 2.01 -0.68 1.02 0 0 Z " fill="#EB4226" transform="translate(161,16)"/>
<path d="M0 0 C1.39895508 -0.01836914 1.39895508 -0.01836914 2.82617188 -0.03710938 C4.16325195 -0.04000977 4.16325195 -0.04000977 5.52734375 -0.04296875 C6.348396 -0.04707764 7.16944824 -0.05118652 8.01538086 -0.05541992 C10.0625 0.1875 10.0625 0.1875 12.0625 2.1875 C11.50694444 6.74305556 11.50694444 6.74305556 10.0625 8.1875 C6.75733066 8.43785974 3.43853959 8.37271952 0.125 8.375 C-0.80763672 8.38724609 -1.74027344 8.39949219 -2.70117188 8.41210938 C-3.59255859 8.41404297 -4.48394531 8.41597656 -5.40234375 8.41796875 C-6.223396 8.42207764 -7.04444824 8.42618652 -7.89038086 8.43041992 C-9.9375 8.1875 -9.9375 8.1875 -11.9375 6.1875 C-10.98106887 -1.6552353 -6.84894087 0.00471366 0 0 Z " fill="#F38F1B" transform="translate(127.9375,176.8125)"/>
</svg>
