<?xml version="1.0" encoding="UTF-8"?>
<svg version="1.1" xmlns="http://www.w3.org/2000/svg" width="256" height="256">
<path d="M0 0 C1.11509118 -0.00573832 1.11509118 -0.00573832 2.25270945 -0.01159257 C4.73296332 -0.02187581 7.21298366 -0.01793938 9.69325256 -0.01396179 C11.47586277 -0.01831084 13.2584711 -0.02349463 15.04107666 -0.02944946 C19.87576903 -0.04282948 24.71038317 -0.04341927 29.54509044 -0.04088616 C33.58339649 -0.03981585 37.62168675 -0.04470133 41.65998942 -0.04949158 C51.18769073 -0.06058317 60.71535261 -0.06102603 70.24305725 -0.05497742 C80.06787098 -0.04893605 89.89254156 -0.06125359 99.71733087 -0.08254749 C108.15741575 -0.10016673 116.59745507 -0.10616436 125.03755766 -0.10290974 C130.07633677 -0.10109738 135.11501373 -0.10372855 140.15377617 -0.11762428 C144.89229188 -0.13020334 149.63058446 -0.12825775 154.36909676 -0.11521339 C156.10611166 -0.1128483 157.84314227 -0.11557991 159.58013916 -0.12383652 C161.95545827 -0.13431146 164.3300297 -0.12619782 166.70532227 -0.11352539 C167.38899225 -0.12089968 168.07266223 -0.12827396 168.77704948 -0.13587171 C175.01752861 -0.06606229 179.49263068 1.59364377 184.22865295 5.69819641 C187.44193356 9.46232512 188.66354392 12.07274405 188.68357849 17.02922058 C188.69637344 18.46328247 188.69637344 18.46328247 188.70942688 19.92631531 C188.70852051 20.96849213 188.70761414 22.01066895 188.7066803 23.08442688 C188.71339752 24.18728027 188.72011475 25.29013367 188.72703552 26.42640686 C188.74605386 30.07694487 188.74994165 33.72729942 188.75209045 37.37788391 C188.75851558 39.91370215 188.76524372 42.44951964 188.77226257 44.9853363 C188.78424486 50.30321776 188.788028 55.62103073 188.78675842 60.93891907 C188.78555725 67.07837643 188.80665564 73.21748212 188.83824575 79.3568505 C188.86758718 85.27072297 188.87473352 91.18448837 188.87353897 97.09843826 C188.87590003 99.61105409 188.88475184 102.12367249 188.9002037 104.63624191 C188.91979236 108.15051734 188.9140528 111.66388696 188.9019928 115.17817688 C188.91323181 116.21630524 188.92447083 117.25443359 188.93605042 118.32402039 C188.88527356 124.14488844 188.42390087 127.70634223 184.41615295 132.26069641 C179.25825822 136.26069641 179.25825822 136.26069641 175.41615295 136.26069641 C175.55607535 140.59424156 175.70415448 144.92747188 175.85365295 149.26069641 C175.89296936 150.4814386 175.93228577 151.70218079 175.97279358 152.95991516 C176.18923398 159.12014205 176.50897126 165.16199594 177.41615295 171.26069641 C176.85025452 171.68221985 176.28435608 172.10374329 175.7013092 172.53804016 C174.96783264 173.08589172 174.23435608 173.63374329 173.47865295 174.19819641 C172.74775452 174.74346985 172.01685608 175.28874329 171.2638092 175.85054016 C169.50270765 177.12977579 169.50270765 177.12977579 168.41615295 178.26069641 C169.05681702 178.47983704 169.69748108 178.69897766 170.3575592 178.92475891 C176.15670385 181.05082386 181.49394056 183.31891687 185.41615295 188.26069641 C192.25544108 204.21903537 188.41615295 222.89854089 188.41615295 240.26069641 C141.88615295 240.26069641 95.35615295 240.26069641 47.41615295 240.26069641 C47.41615295 194.26069641 47.41615295 194.26069641 51.41615295 186.26069641 C53.5997467 184.16694641 53.5997467 184.16694641 55.85365295 182.76069641 C56.59486389 182.27600891 57.33607483 181.79132141 58.0997467 181.29194641 C60.73321477 180.11954242 62.56670037 180.18271823 65.41615295 180.26069641 C64.91591614 179.81476135 64.41567932 179.36882629 63.90028381 178.90937805 C57.88618717 172.60564431 57.61421066 166.65256602 57.80091858 158.38374329 C57.85938461 156.82186498 57.91863896 155.260016 57.97865295 153.69819641 C58.01382348 152.10125986 58.04575237 150.50424846 58.07435608 148.90718079 C58.15090815 145.02314753 58.2713592 141.14276014 58.41615295 137.26069641 C55.44615295 137.26069641 52.47615295 137.26069641 49.41615295 137.26069641 C49.95384168 141.13205521 50.99362595 143.23253766 53.41615295 146.26069641 C54.31685649 148.96280702 54.6377282 150.83138572 54.72865295 153.63569641 C54.78472717 154.76104797 54.78472717 154.76104797 54.8419342 155.90913391 C54.23640919 159.2534097 52.73293248 160.80152467 50.41615295 163.26069641 C47.70228577 164.47090149 47.70228577 164.47090149 44.61927795 165.28022766 C42.9331842 165.72978821 42.9331842 165.72978821 41.21302795 166.18843079 C40.0425592 166.48040344 38.87209045 166.7723761 37.66615295 167.07319641 C35.93365295 167.5401593 35.93365295 167.5401593 34.16615295 168.01655579 C19.10289323 171.92853248 19.10289323 171.92853248 12.41615295 168.26069641 C11.81555249 183.36121016 13.58271872 197.32434683 16.41615295 212.13569641 C16.99192275 215.21983246 17.56259269 218.30481377 18.12806702 221.39085388 C18.4772507 223.28868858 18.83298611 225.18533393 19.19642639 227.08049011 C19.35659241 227.93643768 19.51675842 228.79238525 19.68177795 229.67427063 C19.82389709 230.41780792 19.96601624 231.16134521 20.11244202 231.92741394 C20.47122177 234.68376682 20.41615295 237.48109138 20.41615295 240.26069641 C-7.63384705 240.26069641 -35.68384705 240.26069641 -64.58384705 240.26069641 C-61.82272676 227.83565511 -58.97070199 215.46246728 -55.85752869 203.1254425 C-53.8646309 195.20998931 -52.01073262 187.44902612 -51.58384705 179.26069641 C-52.30040466 179.30178528 -53.01696228 179.34287415 -53.75523376 179.38520813 C-60.8061091 179.7368625 -60.8061091 179.7368625 -64.64634705 177.38569641 C-67.50956558 174.24539221 -67.71530703 172.52669946 -67.760849 168.37129211 C-67.77368423 167.35295792 -67.78651947 166.33462372 -67.79974365 165.28543091 C-67.80713058 164.18027634 -67.81451752 163.07512177 -67.8221283 161.93647766 C-67.83020004 160.80171494 -67.83827179 159.66695221 -67.84658813 158.49780273 C-67.86043914 156.09106478 -67.87115672 153.6843071 -67.87901306 151.27754211 C-67.89619575 147.60552902 -67.94007078 143.93442309 -67.98423767 140.26264954 C-67.99436706 137.92476554 -68.00288239 135.58687387 -68.0096283 133.24897766 C-68.02713638 132.15394424 -68.04464447 131.05891083 -68.06268311 129.93069458 C-68.04440917 123.47143892 -67.37588364 119.54646609 -63.58384705 114.26069641 C-63.91384705 113.93069641 -64.24384705 113.60069641 -64.58384705 113.26069641 C-66.16087189 95.05800661 -65.91729428 71.44756062 -56.58384705 55.26069641 C-56.15330017 54.50917297 -55.7227533 53.75764954 -55.27915955 52.98335266 C-50.62699834 45.92626066 -43.62919505 41.7212311 -35.45884705 39.82319641 C-31.00695452 38.96824819 -27.03064173 39.61671029 -22.58384705 40.26069641 C-22.5995575 39.47420715 -22.61526794 38.6877179 -22.63145447 37.87739563 C-22.6940062 34.29690303 -22.73290256 30.71652566 -22.77134705 27.13569641 C-22.79648376 25.89819641 -22.82162048 24.66069641 -22.84751892 23.38569641 C-22.85718689 22.18686829 -22.86685486 20.98804016 -22.8768158 19.75288391 C-22.89252625 18.65315247 -22.90823669 17.55342102 -22.92442322 16.42036438 C-22.36739378 11.25256872 -20.44998456 8.10758642 -16.77134705 4.51069641 C-11.38058127 0.70544998 -6.47726504 -0.03568983 0 0 Z M16.41615295 137.26069641 C18.06615295 138.91069641 19.71615295 140.56069641 21.41615295 142.26069641 C21.91373108 142.8730011 22.4113092 143.48530579 22.92396545 144.11616516 C24.40782801 145.50468029 24.40782801 145.50468029 26.72084045 145.18647766 C33.28044649 143.79906934 33.28044649 143.79906934 39.41615295 141.26069641 C40.07615295 139.94069641 40.73615295 138.62069641 41.41615295 137.26069641 C33.16615295 137.26069641 24.91615295 137.26069641 16.41615295 137.26069641 Z M109.41615295 137.26069641 C109.45095764 139.18913391 109.48576233 141.11757141 109.5216217 143.10444641 C109.54976959 145.656521 109.57706867 148.20860505 109.60365295 150.76069641 C109.62878967 152.02913391 109.65392639 153.29757141 109.67982483 154.60444641 C109.75768251 164.57022993 108.28700868 171.16296438 102.41615295 179.26069641 C103.2359967 179.65901672 104.05584045 180.05733704 104.90052795 180.46772766 C105.9781842 180.99753235 107.05584045 181.52733704 108.16615295 182.07319641 C109.2334967 182.59526672 110.30084045 183.11733704 111.40052795 183.65522766 C113.96848538 185.02236561 116.16086078 186.43785104 118.41615295 188.26069641 C118.84025452 187.85077454 119.26435608 187.44085266 119.7013092 187.01850891 C123.82525197 183.22991973 126.92369072 181.38160707 132.41615295 180.26069641 C129.3059884 176.97280817 126.3999637 174.42333653 122.41615295 172.26069641 C122.66171936 170.45278625 122.66171936 170.45278625 122.9122467 168.60835266 C123.61214031 162.30931017 123.52419213 156.02814224 123.47865295 149.69819641 C123.47414124 148.49872375 123.46962952 147.2992511 123.46498108 146.06343079 C123.45329077 143.12916414 123.4353588 140.19492349 123.41615295 137.26069641 C118.79615295 137.26069641 114.17615295 137.26069641 109.41615295 137.26069641 Z " fill="#030303" transform="translate(67.58384704589844,7.7393035888671875)"/>
<path d="M0 0 C0.75378707 -0.00523668 1.50757413 -0.01047336 2.28420323 -0.01586872 C4.81754838 -0.03090613 7.35069221 -0.03157469 9.88407898 -0.03224182 C11.69742678 -0.03986084 13.51077135 -0.04828789 15.32411194 -0.0574646 C20.25600424 -0.07944296 25.18783454 -0.08821308 30.11977029 -0.09329104 C33.20017692 -0.09693093 36.28056722 -0.10316909 39.36096764 -0.11029243 C50.10516958 -0.13479934 60.84932317 -0.14784133 71.59355164 -0.15138245 C81.61210083 -0.15501782 91.63034369 -0.18491019 101.64879924 -0.22678703 C110.2467699 -0.26146764 118.84463895 -0.27693051 127.44267911 -0.27762848 C132.57936925 -0.27842211 137.71574755 -0.28720011 142.85236549 -0.31562614 C147.68450888 -0.34176827 152.51608107 -0.34403356 157.34826279 -0.3279705 C159.12118333 -0.32615289 160.89413642 -0.33287492 162.66698647 -0.34878922 C165.08921536 -0.36920592 167.50943747 -0.35872594 169.93164062 -0.34057617 C170.63194265 -0.35377614 171.33224468 -0.36697611 172.05376798 -0.38057607 C177.60776499 -0.28563435 179.88470088 1.49251527 183.65629578 5.27415466 C184.8230276 7.60761831 184.78690919 8.97477188 184.79673767 11.5743866 C184.80244781 12.4771936 184.80815796 13.38000061 184.81404114 14.31016541 C184.81571793 15.80005981 184.81571793 15.80005981 184.81742859 17.3200531 C184.82239349 18.36409302 184.8273584 19.40813293 184.83247375 20.48381042 C184.84712226 23.95039013 184.85390236 27.41692405 184.85942078 30.88352966 C184.86517064 33.28768414 184.87092839 35.6918386 184.87669373 38.09599304 C184.8872118 43.14333816 184.89304898 48.19066731 184.89653015 53.23802185 C184.90201223 59.70565235 184.92603095 66.17307203 184.95450211 72.64063644 C184.9731276 77.60946773 184.97833408 82.57824827 184.97986603 87.54711151 C184.98289399 89.93133444 184.99092731 92.31555645 185.00405121 94.69974518 C185.02110711 98.03688566 185.01923214 101.37351171 185.01274109 104.7106781 C185.02195587 105.69584412 185.03117065 106.68101013 185.04066467 107.69602966 C185.0086177 112.95602149 184.69817633 116.77170763 181.65629578 121.27415466 C178.65629578 123.27415466 178.65629578 123.27415466 176.40629578 123.83665466 C173.18449913 123.1776508 172.59030689 122.38511112 170.40629578 120.02415466 C164.77622652 114.06787968 159.26093045 112.06684966 151.09379578 111.77415466 C145.32967454 111.94923311 141.46332223 113.21817961 136.65629578 116.27415466 C135.94988953 116.60673279 135.24348328 116.93931091 134.51567078 117.28196716 C132.13347353 118.55313964 131.65558605 119.81436323 130.65629578 122.27415466 C130.32629578 122.93415466 129.99629578 123.59415466 129.65629578 124.27415466 C110.77670242 125.5935188 110.77670242 125.5935188 106.01957703 122.63352966 C104.40629578 120.52415466 104.40629578 120.52415466 103.02348328 118.32102966 C100.51069365 114.55902462 96.93289365 113.31580709 92.65629578 112.27415466 C84.03074377 111.13778959 76.76074201 112.0269951 69.65629578 117.27415466 C68.05865412 119.08506464 66.62405861 120.963504 65.17192078 122.89134216 C63.17786194 124.71066389 61.94513686 124.72096879 59.28129578 124.71165466 C58.08504578 124.56727966 56.88879578 124.42290466 55.65629578 124.27415466 C57.08960667 120.44352065 58.85856226 116.97648947 60.87895203 113.42259216 C61.80997742 111.77517029 61.80997742 111.77517029 62.7598114 110.09446716 C63.40627625 108.95751404 64.05274109 107.82056091 64.71879578 106.64915466 C66.00372189 104.38748094 67.28638464 102.12451938 68.56645203 99.86009216 C69.41928772 98.36034851 69.41928772 98.36034851 70.28935242 96.83030701 C71.75206101 94.26771496 71.75206101 94.26771496 72.65629578 91.27415466 C71.00629578 90.61415466 69.35629578 89.95415466 67.65629578 89.27415466 C67.39131287 90.14668884 67.12632996 91.01922302 66.85331726 91.91819763 C65.67914292 95.21010064 64.27074142 97.96032811 62.50395203 100.96946716 C61.89229187 102.01489685 61.28063171 103.06032654 60.6504364 104.13743591 C60.012995 105.2138031 59.37555359 106.29017029 58.71879578 107.39915466 C58.08522156 108.48325623 57.45164734 109.56735779 56.7988739 110.68431091 C53.35245783 116.54792942 53.35245783 116.54792942 51.65629578 119.27415466 C51.23493347 120.03808533 50.81357117 120.80201599 50.37944031 121.58909607 C48.65629578 123.27415466 48.65629578 123.27415466 45.56181335 123.72825623 C44.32068787 123.70730896 43.07956238 123.68636169 41.80082703 123.66477966 C41.13919052 123.65911987 40.47755402 123.65346008 39.79586792 123.64762878 C37.68610245 123.62526714 35.57804625 123.57507837 33.46879578 123.52415466 C32.03717971 123.50408906 30.60553698 123.48583838 29.1738739 123.46946716 C25.66746063 123.42540535 22.16204506 123.35638243 18.65629578 123.27415466 C18.50390442 122.26747742 18.50390442 122.26747742 18.34843445 121.24046326 C17.18225215 114.34312171 17.18225215 114.34312171 12.96879578 108.89915466 C11.01957703 107.06321716 11.01957703 107.06321716 9.65629578 105.27415466 C9.94649153 103.93077262 10.2858713 102.5976631 10.65629578 101.27415466 C11.99196012 71.50046581 11.99196012 71.50046581 0.36332703 45.05931091 C-3.97656084 40.52080118 -8.51934032 37.54015037 -14.34370422 35.27415466 C-14.46022148 30.89937992 -14.53106422 26.52500639 -14.59370422 22.14915466 C-14.62721985 20.91165466 -14.66073547 19.67415466 -14.69526672 18.39915466 C-14.81863238 6.92614833 -14.81863238 6.92614833 -10.34370422 2.27415466 C-6.74507796 -0.12492951 -4.15596986 -0.01419675 0 0 Z " fill="#229EAA" transform="translate(65.34370422363281,14.725845336914063)"/>
<path d="M0 0 C17.16 0 34.32 0 52 0 C53.155 6.72375 54.31 13.4475 55.5 20.375 C55.86544922 22.49728027 56.23089844 24.61956055 56.60742188 26.80615234 C56.89466295 28.48272484 57.18178083 30.15931844 57.46875 31.8359375 C57.61989258 32.71096924 57.77103516 33.58600098 57.92675781 34.48754883 C58.13993652 35.73580444 58.13993652 35.73580444 58.35742188 37.00927734 C58.48177612 37.73319672 58.60613037 38.45711609 58.73425293 39.20297241 C59 41 59 41 59 43 C36.23 43 13.46 43 -10 43 C-8.875 34 -8.875 34 -8.06030273 30.87890625 C-7.87769897 30.16927734 -7.69509521 29.45964844 -7.50695801 28.72851562 C-7.3177478 28.01373047 -7.1285376 27.29894531 -6.93359375 26.5625 C-6.757677 25.88251953 -6.58176025 25.20253906 -6.4005127 24.50195312 C-5.75165487 21.99987463 -5.09408753 19.50006122 -4.4375 17 C-2.973125 11.39 -1.50875 5.78 0 0 Z " fill="#FD816D" transform="translate(22,198)"/>
<path d="M0 0 C1.10359863 -0.00929787 1.10359863 -0.00929787 2.22949219 -0.01878357 C3.77928347 -0.02586226 5.3291511 -0.02274174 6.87890625 -0.01000977 C9.24361593 0.00386878 11.6043735 -0.03024806 13.96875 -0.06835938 C15.47916763 -0.0693106 16.98959019 -0.06745159 18.5 -0.0625 C19.2022168 -0.07575821 19.90443359 -0.08901642 20.62792969 -0.10267639 C24.53152407 -0.02901641 26.12259109 0.46112995 29.171875 2.98071289 C32.39436569 6.99027573 32.72631142 10.45663228 33.3125 15.44140625 C33.40337891 16.14265625 33.49425781 16.84390625 33.58789062 17.56640625 C34.35708533 24.02070166 34.25 29.93019024 34.25 36.56640625 C17.42 36.56640625 0.59 36.56640625 -16.75 36.56640625 C-14.10666051 6.16800217 -14.10666051 6.16800217 -10.609375 2.03930664 C-7.02904938 0.19503543 -3.9406516 -0.02783345 0 0 Z " fill="#4F3C30" transform="translate(209.75,204.43359375)"/>
<path d="M0 0 C0.73619064 -0.00761353 1.47238129 -0.01522705 2.23088074 -0.02307129 C3.78840752 -0.03387106 5.34600672 -0.03672585 6.90356445 -0.03222656 C9.27484763 -0.03125741 11.64285876 -0.0728041 14.01367188 -0.1171875 C15.5299412 -0.12239739 17.04622172 -0.12508265 18.5625 -0.125 C19.61749443 -0.1495929 19.61749443 -0.1495929 20.69380188 -0.17468262 C24.40476111 -0.12318603 26.96369026 0.44553301 29.89770508 2.64672852 C32.73260757 5.74424604 33.32865034 7.10606927 33.72265625 11.21484375 C33.83867187 12.29958984 33.9546875 13.38433594 34.07421875 14.50195312 C34.16703125 15.62537109 34.25984375 16.74878906 34.35546875 17.90625 C34.47148437 19.02580078 34.5875 20.14535156 34.70703125 21.29882812 C35.21629279 26.40660016 35.48046875 31.32244747 35.48046875 36.46875 C18.65046875 36.46875 1.82046875 36.46875 -15.51953125 36.46875 C-15.51953125 30.05164003 -15.34823924 24.05004781 -14.70703125 17.71875 C-14.63677734 16.89503906 -14.56652344 16.07132813 -14.49414062 15.22265625 C-14.02844436 10.59549813 -13.42183515 7.26352992 -10.51953125 3.46875 C-10.14634766 2.93991211 -9.77316406 2.41107422 -9.38867188 1.86621094 C-6.50776919 -0.28769279 -3.46142111 0.00098278 0 0 Z " fill="#4F3C30" transform="translate(141.51953125,204.53125)"/>
<path d="M0 0 C7.19598468 4.56668259 11.04527246 11.70668105 13.04296875 19.91015625 C15.21327701 30.40500056 18.89080633 49.21838734 14 59 C10.7 58.67 7.4 58.34 4 58 C4.825 56.80375 5.65 55.6075 6.5 54.375 C9.44776833 48.57967077 9.46259831 43.11346673 9.4375 36.75 C9.43363281 35.31213135 9.43363281 35.31213135 9.4296875 33.84521484 C9.32541032 28.86511062 8.94758962 24.66170046 7 20 C5.38544922 20.06960937 5.38544922 20.06960937 3.73828125 20.140625 C-10.20732877 20.56083775 -21.33621289 18.09985216 -33 10 C-33.33 9.67 -33.66 9.34 -34 9 C-34.31919939 10.31088682 -34.62985947 11.62385248 -34.9375 12.9375 C-35.11152344 13.66839844 -35.28554688 14.39929688 -35.46484375 15.15234375 C-36.8547 22.54800218 -37.20603514 29.92500371 -37.25 37.4375 C-37.270625 38.31470703 -37.29125 39.19191406 -37.3125 40.09570312 C-37.35082105 46.59591201 -36.10395414 51.8487025 -34 58 C-40.435 58.495 -40.435 58.495 -47 59 C-47.32115314 49.79360991 -46.73619048 40.90055429 -45.75 31.75 C-45.64067139 30.64994629 -45.53134277 29.54989258 -45.41870117 28.41650391 C-44.00224145 16.05619549 -40.28382703 7.47029579 -31 -1 C-21.99900829 -7.00066114 -9.04927247 -5.06088942 0 0 Z " fill="#93521D" transform="translate(56,58)"/>
<path d="M0 0 C5.53421054 2.52511508 9.10762696 6.09748207 11.80029297 11.60424805 C12.83099926 14.7784915 12.90661033 17.37214111 12.875 20.70703125 C12.86855469 21.90908203 12.86210937 23.11113281 12.85546875 24.34960938 C12.83871094 25.59548828 12.82195312 26.84136719 12.8046875 28.125 C12.79566406 29.39021484 12.78664062 30.65542969 12.77734375 31.95898438 C12.75381144 35.07701564 12.72093295 38.19466097 12.6796875 41.3125 C11.3596875 41.3125 10.0396875 41.3125 8.6796875 41.3125 C8.6796875 37.6825 8.6796875 34.0525 8.6796875 30.3125 C6.6996875 30.3125 4.7196875 30.3125 2.6796875 30.3125 C2.6796875 34.2725 2.6796875 38.2325 2.6796875 42.3125 C0.3696875 42.3125 -1.9403125 42.3125 -4.3203125 42.3125 C-4.3203125 38.3525 -4.3203125 34.3925 -4.3203125 30.3125 C-6.3003125 30.3125 -8.2803125 30.3125 -10.3203125 30.3125 C-10.3203125 34.2725 -10.3203125 38.2325 -10.3203125 42.3125 C-12.3003125 42.3125 -14.2803125 42.3125 -16.3203125 42.3125 C-16.3203125 38.3525 -16.3203125 34.3925 -16.3203125 30.3125 C-18.3003125 30.3125 -20.2803125 30.3125 -22.3203125 30.3125 C-22.3203125 33.9425 -22.3203125 37.5725 -22.3203125 41.3125 C-23.9703125 41.3125 -25.6203125 41.3125 -27.3203125 41.3125 C-27.4372775 36.97939672 -27.5078214 32.6467042 -27.5703125 28.3125 C-27.60382813 27.09175781 -27.63734375 25.87101562 -27.671875 24.61328125 C-27.75578916 16.85122179 -27.51101604 10.68546947 -21.87207031 4.80126953 C-15.35941374 -0.92240883 -8.41947868 -2.49466035 0 0 Z " fill="#4D3B2F" transform="translate(224.3203125,132.6875)"/>
<path d="M0 0 C4.82742575 2.8748694 7.83823606 6.2520446 9.75 11.5625 C11.09668663 18.55625919 11.35526264 25.89958252 8.4609375 32.50390625 C4.22465668 37.37650086 -0.78955102 38.06581167 -6.94189453 38.49584961 C-13.68003806 38.65577946 -20.37566129 38.62483392 -26.0625 34.625 C-30.57634905 29.48345824 -30.21224432 23.08479903 -29.859375 16.5859375 C-29.16079721 10.16340687 -26.13987487 5.67444024 -21.25 1.5625 C-14.53148135 -2.25783413 -7.19634697 -2.99962455 0 0 Z " fill="#4F3C30" transform="translate(161.25,133.4375)"/>
<path d="M0 0 C1.85625 0.6496875 1.85625 0.6496875 3.75 1.3125 C13.81737504 4.63158771 23.39407193 6.50391627 34 7 C36.21897445 13.65692335 36.23872954 22.9654463 34.1640625 29.72265625 C31.38949418 34.55487422 27.17647865 37.97968369 22 40 C16.38675211 41.10891086 11.74037986 40.052239 6.79296875 37.27734375 C3.00853359 34.58124289 0.48308286 31.44924858 -1 27 C-1.09220107 25.52826224 -1.1306736 24.05274648 -1.1328125 22.578125 C-1.13410156 21.71703125 -1.13539062 20.8559375 -1.13671875 19.96875 C-1.13285156 19.0715625 -1.12898438 18.174375 -1.125 17.25 C-1.12886719 16.36828125 -1.13273437 15.4865625 -1.13671875 14.578125 C-1.12932749 9.61119915 -0.84273053 4.89586307 0 0 Z " fill="#EAC9AD" transform="translate(25,77)"/>
<path d="M0 0 C12.87 0 25.74 0 39 0 C39 14.52 39 29.04 39 44 C26.13 44 13.26 44 0 44 C0 42.02 0 40.04 0 38 C1.07483643 37.97812622 1.07483643 37.97812622 2.17138672 37.95581055 C5.40647983 37.88151 8.64052019 37.78479139 11.875 37.6875 C13.56689453 37.65366211 13.56689453 37.65366211 15.29296875 37.61914062 C16.36933594 37.58369141 17.44570313 37.54824219 18.5546875 37.51171875 C20.04718018 37.47244263 20.04718018 37.47244263 21.56982422 37.43237305 C22.37178223 37.28968994 23.17374023 37.14700684 24 37 C26.37184142 33.44223788 26.29824394 31.71979393 26.3125 27.5 C26.32925781 26.3553125 26.34601562 25.210625 26.36328125 24.03125 C26.25286497 21.03604314 26.25286497 21.03604314 24.66796875 19.15625 C22.88774784 17.80670248 22.88774784 17.80670248 20 17 C19.32215008 14.66989091 18.65583207 12.33640176 18 10 C15.15003689 7.71103596 15.15003689 7.71103596 11.75 7.9375 C7.25327417 9.21157232 5.43944561 11.09774782 2.3828125 14.50390625 C1.92648438 14.99761719 1.47015625 15.49132812 1 16 C0.67 16 0.34 16 0 16 C0 10.72 0 5.44 0 0 Z " fill="#219AA5" transform="translate(34,148)"/>
<path d="M0 0 C2.64 0 5.28 0 8 0 C9.72330907 7.09326321 10.2494783 13.70968976 10 21 C22.07085662 22.41814658 22.07085662 22.41814658 33.2265625 18.99609375 C35.58190071 16.57389248 35.58190071 16.57389248 37.44140625 13.96875 C37.95574219 13.3190625 38.47007813 12.669375 39 12 C39.99 12 40.98 12 42 12 C41.34 15.3 40.68 18.6 40 22 C42.97 22 45.94 22 49 22 C49 25.3 49 28.6 49 32 C42.34311004 32.04933278 35.68632582 32.08568755 29.02929688 32.10986328 C26.76332751 32.11993859 24.49737119 32.13359918 22.23144531 32.15087891 C18.97978499 32.17506011 15.72829613 32.18646763 12.4765625 32.1953125 C10.94994492 32.21079636 10.94994492 32.21079636 9.39248657 32.22659302 C8.45166229 32.22674408 7.51083801 32.22689514 6.54150391 32.22705078 C5.29574081 32.23371262 5.29574081 32.23371262 4.02481079 32.24050903 C2 32 2 32 0 30 C-0.22705078 27.01904297 -0.22705078 27.01904297 -0.1953125 23.2421875 C-0.1924826 22.57913605 -0.18965271 21.91608459 -0.18673706 21.23294067 C-0.17553435 19.11344417 -0.15043051 16.99436896 -0.125 14.875 C-0.11497028 13.43880818 -0.10584441 12.00260975 -0.09765625 10.56640625 C-0.075595 7.04413372 -0.04106494 3.52210797 0 0 Z " fill="#E4C3A9" transform="translate(6,149)"/>
<path d="M0 0 C26.07 0 52.14 0 79 0 C79 1.98 79 3.96 79 6 C52.93 6 26.86 6 0 6 C0 4.02 0 2.04 0 0 Z " fill="#020A0B" transform="translate(122,32)"/>
<path d="M0 0 C1.27310312 0.93441535 2.543388 1.87267111 3.8125 2.8125 C4.52019531 3.33457031 5.22789063 3.85664063 5.95703125 4.39453125 C8 6 8 6 9.3984375 7.7421875 C11.01567865 9.28807401 11.01567865 9.28807401 13.70703125 8.92578125 C15.24423828 8.62220703 15.24423828 8.62220703 16.8125 8.3125 C17.88371094 8.10496094 18.95492187 7.89742187 20.05859375 7.68359375 C23.10006363 7.02493588 23.10006363 7.02493588 26.375 5.875 C29.37011149 4.8766295 31.86379752 4.85065702 35 5 C36.85776765 8.13498292 37.20140476 10.37471432 37 14 C31.87914588 16.36139518 26.93420235 17.90351059 21.4375 19.125 C20.70853516 19.29386719 19.97957031 19.46273437 19.22851562 19.63671875 C17.15604554 20.11053279 15.07946242 20.55806246 13 21 C11.91589844 21.24363281 10.83179687 21.48726562 9.71484375 21.73828125 C6.67067473 22.0317479 5.57202098 21.85154423 3.125 20.0625 C0.25147012 17.42895723 -0.00137421 15.98765641 -0.44140625 12.03515625 C-0.51082014 8.00689669 -0.30049859 4.01618752 0 0 Z " fill="#E7C6AB" transform="translate(79,150)"/>
<path d="M0 0 C0.88731812 -0.00145523 1.77463623 -0.00291046 2.68884277 -0.00440979 C4.55805762 -0.0027556 6.42728676 0.00875175 8.29638672 0.02954102 C11.14740217 0.05850387 13.99655672 0.0501382 16.84765625 0.03710938 C18.66927981 0.0433474 20.49089754 0.05173884 22.3125 0.0625 C23.15953491 0.05956436 24.00656982 0.05662872 24.87927246 0.05360413 C29.87247412 0.13267048 33.32796857 0.74222056 37.65625 3.49609375 C42.04176447 8.23719047 42.78261819 11.56872297 42.75390625 17.9140625 C42.75068359 19.16767578 42.74746094 20.42128906 42.74414062 21.71289062 C42.73157227 23.67838867 42.73157227 23.67838867 42.71875 25.68359375 C42.71373317 27.01887856 42.70917059 28.35416516 42.70507812 29.68945312 C42.69327695 32.95837848 42.67681297 36.22721366 42.65625 39.49609375 C42.32625 39.49609375 41.99625 39.49609375 41.65625 39.49609375 C41.62184814 38.87154297 41.58744629 38.24699219 41.55200195 37.60351562 C41.38066354 34.73246825 41.17496386 31.86483876 40.96875 28.99609375 C40.88850586 27.52269531 40.88850586 27.52269531 40.80664062 26.01953125 C40.31911085 19.66044721 39.30462358 14.15905646 34.65625 9.49609375 C30.08138746 6.61471618 26.1368806 6.05133444 20.84375 6.09765625 C19.7458313 6.09335098 19.7458313 6.09335098 18.62573242 6.08895874 C17.08609234 6.08692728 15.5464259 6.09239263 14.00683594 6.10498047 C11.66281916 6.12104872 9.32052626 6.10510198 6.9765625 6.0859375 C5.47395456 6.0879201 3.97134769 6.09176412 2.46875 6.09765625 C1.77483154 6.09158356 1.08091309 6.08551086 0.3659668 6.07925415 C-5.38253566 6.16150826 -9.36379316 7.68113332 -13.59375 11.55859375 C-17.61573036 18.30977507 -17.72190473 26.80484956 -18.34375 34.49609375 C-18.67375 34.49609375 -19.00375 34.49609375 -19.34375 34.49609375 C-19.46043214 30.62134918 -19.53116231 26.74705979 -19.59375 22.87109375 C-19.62726563 21.77667969 -19.66078125 20.68226563 -19.6953125 19.5546875 C-19.76997861 13.3947335 -19.8077157 9.1817796 -15.34375 4.49609375 C-10.2060744 0.23965184 -6.38554977 -0.08468969 0 0 Z " fill="#E37462" transform="translate(207.34375,193.50390625)"/>
<path d="M0 0 C1.36283615 -0.00574036 1.36283615 -0.00574036 2.75320435 -0.01159668 C4.6712556 -0.01431303 6.58934407 -0.00697124 8.50732422 0.00976562 C11.42891 0.03113005 14.34802292 0.00998067 17.26953125 -0.015625 C19.13802622 -0.0129807 21.00651966 -0.00785362 22.875 0 C24.17532669 -0.01214539 24.17532669 -0.01214539 25.50192261 -0.02453613 C31.33876647 0.06475565 34.83972456 1.03221903 39.5703125 4.53125 C42.37496017 8.0458899 42.93776499 10.60658476 42.86328125 15.05078125 C42.8487793 16.5831543 42.8487793 16.5831543 42.83398438 18.14648438 C42.80884766 19.20158203 42.78371094 20.25667969 42.7578125 21.34375 C42.73750977 22.95540039 42.73750977 22.95540039 42.71679688 24.59960938 C42.68153827 27.24400455 42.63225616 29.88736748 42.5703125 32.53125 C42.2403125 32.53125 41.9103125 32.53125 41.5703125 32.53125 C41.42335938 30.79488281 41.42335938 30.79488281 41.2734375 29.0234375 C41.12327665 27.48428881 40.97218559 25.94523068 40.8203125 24.40625 C40.7584375 23.64570313 40.6965625 22.88515625 40.6328125 22.1015625 C40.10072586 16.95805835 39.07210038 13.54520414 35.5703125 9.53125 C30.85564053 6.59355909 26.75544618 6.07602642 21.3203125 6.09765625 C20.54397461 6.0924144 19.76763672 6.08717255 18.96777344 6.08177185 C17.33399649 6.07537708 15.70017334 6.07665555 14.06640625 6.08520508 C11.57728664 6.09372613 9.09045651 6.06490409 6.6015625 6.03320312 C5.00781318 6.03159103 3.41405983 6.0321688 1.8203125 6.03515625 C1.08264648 6.02392227 0.34498047 6.01268829 -0.41503906 6.00111389 C-5.56019084 6.06997465 -8.45839347 7.30702369 -12.4296875 10.53125 C-15.73888795 14.63006443 -16.12289954 18.76936256 -16.6171875 23.84375 C-16.69904297 24.58431641 -16.78089844 25.32488281 -16.86523438 26.08789062 C-17.06411338 27.90119923 -17.24838577 29.71609969 -17.4296875 31.53125 C-17.7596875 31.53125 -18.0896875 31.53125 -18.4296875 31.53125 C-18.54658376 28.15654496 -18.61716684 24.7823657 -18.6796875 21.40625 C-18.71320313 20.45492187 -18.74671875 19.50359375 -18.78125 18.5234375 C-18.88201241 11.26854374 -17.4909098 7.70161975 -12.37548828 2.40380859 C-8.23419141 -0.22869158 -4.81319202 -0.04474747 0 0 Z " fill="#EE7966" transform="translate(139.4296875,193.46875)"/>
<path d="M0 0 C25.41 0 50.82 0 77 0 C77 1.65 77 3.3 77 5 C51.59 5 26.18 5 0 5 C0 3.35 0 1.7 0 0 Z " fill="#000000" transform="translate(123,78)"/>
<path d="M0 0 C-0.33 0.53625 -0.66 1.0725 -1 1.625 C-2.22699204 4.5391061 -2.14233286 6.86867708 -2 10 C1.465 11.98 1.465 11.98 5 14 C4.9071875 15.6396875 4.9071875 15.6396875 4.8125 17.3125 C4.874375 18.529375 4.93625 19.74625 5 21 C5.495 21.4021875 5.99 21.804375 6.5 22.21875 C8.95164101 25.1300737 8.31079888 28.56757127 8.1875 32.1875 C8.16719727 33.31188477 8.16719727 33.31188477 8.14648438 34.45898438 C8.11118539 36.30629767 8.05737917 38.15324066 8 40 C6.02 40 4.04 40 2 40 C-0.25943749 31.95075394 -0.19676277 24.29683005 0 16 C-1.32 15.34 -2.64 14.68 -4 14 C-4.33 15.32 -4.66 16.64 -5 18 C-7.97 18 -10.94 18 -14 18 C-14.86101859 7.24683455 -14.86101859 7.24683455 -11.625 3.375 C-7.58493908 -0.28029322 -5.38389056 -0.09970168 0 0 Z " fill="#CACCCD" transform="translate(20,124)"/>
<path d="M0 0 C1.34578125 1.21816406 1.34578125 1.21816406 2.71875 2.4609375 C7.91622367 6.16034658 13.3337025 5.73318066 19.5 5.625 C21.15322266 5.65400391 21.15322266 5.65400391 22.83984375 5.68359375 C29.90226867 5.64120224 33.72829852 4.77179875 39 0 C38.92144295 3.22083895 38.56286583 5.35692233 36.41015625 7.81640625 C35.16121264 8.99894386 33.88946522 10.15796683 32.59375 11.2890625 C30.62613027 13.12475725 30.62613027 13.12475725 30 17 C23.07 17 16.14 17 9 17 C8.34 15.35 7.68 13.7 7 12 C5.30697017 10.37374961 5.30697017 10.37374961 3.375 9.0625 C0.05381996 6.41518258 0.05381996 6.41518258 -0.4375 2.625 C-0.293125 1.75875 -0.14875 0.8925 0 0 Z " fill="#E4C4A9" transform="translate(132,171)"/>
<path d="M0 0 C16.5 0 33 0 50 0 C50 1.98 50 3.96 50 6 C33.5 6 17 6 0 6 C0 4.02 0 2.04 0 0 Z " fill="#020D0E" transform="translate(123,64)"/>
<path d="M0 0 C13.53 0 27.06 0 41 0 C41 1.98 41 3.96 41 6 C27.47 6 13.94 6 0 6 C0 4.02 0 2.04 0 0 Z " fill="#010809" transform="translate(122,93)"/>
<path d="M0 0 C11.55 0 23.1 0 35 0 C35 1.98 35 3.96 35 6 C23.45 6 11.9 6 0 6 C0 4.02 0 2.04 0 0 Z " fill="#020A0B" transform="translate(166,47)"/>
<path d="M0 0 C7.36842105 0.36842105 7.36842105 0.36842105 10.4375 3.4375 C13.54012811 8.52581011 13.07643508 12.0380634 13 18 C7.39 18 1.78 18 -4 18 C-4 16.68 -4 15.36 -4 14 C-2.5459375 13.443125 -2.5459375 13.443125 -1.0625 12.875 C2.2282079 11.29463544 2.2282079 11.29463544 3.0625 8.125 C2.99037775 4.51888758 2.11172763 2.87194958 0 0 Z " fill="#CBCCCD" transform="translate(65,124)"/>
<path d="M0 0 C9.24 0 18.48 0 28 0 C28 1.98 28 3.96 28 6 C18.76 6 9.52 6 0 6 C0 4.02 0 2.04 0 0 Z " fill="#020B0C" transform="translate(122,47)"/>
<path d="M0 0 C8.91 0 17.82 0 27 0 C26.34 1.32 25.68 2.64 25 4 C24.67 4.99 24.34 5.98 24 7 C20.72963272 7.14510162 17.46008993 7.23399373 14.1875 7.3125 C12.7943457 7.3753418 12.7943457 7.3753418 11.37304688 7.43945312 C8.82412219 7.4854626 6.50501956 7.47860365 4 7 C1.92578125 4.60546875 1.92578125 4.60546875 1 2 C0.67 1.34 0.34 0.68 0 0 Z " fill="#E1C1A6" transform="translate(203,181)"/>
<path d="M0 0 C0.99 0.33 1.98 0.66 3 1 C1.71850328 3.81724453 0.42312767 6.62788457 -0.875 9.4375 C-1.23980469 10.23994141 -1.60460938 11.04238281 -1.98046875 11.86914062 C-2.33496094 12.63291016 -2.68945312 13.39667969 -3.0546875 14.18359375 C-3.54171143 15.24404907 -3.54171143 15.24404907 -4.03857422 16.32592773 C-5 18 -5 18 -7 19 C-9.64 13.06 -12.28 7.12 -15 1 C-12.89625 1.020625 -10.7925 1.04125 -8.625 1.0625 C-4.15068706 1.26801414 -4.15068706 1.26801414 0 0 Z " fill="#E6C5AA" transform="translate(49,121)"/>
<path d="M0 0 C8.25 0 16.5 0 25 0 C25 1.98 25 3.96 25 6 C16.75 6 8.5 6 0 6 C0 4.02 0 2.04 0 0 Z " fill="#02090A" transform="translate(176,93)"/>
<path d="M0 0 C0.721875 0.350625 1.44375 0.70125 2.1875 1.0625 C5.38276934 2.12758978 6.80681371 1.90064229 10 1 C10.763125 0.814375 11.52625 0.62875 12.3125 0.4375 C12.869375 0.293125 13.42625 0.14875 14 0 C14.66 1.32 15.32 2.64 16 4 C11.30477759 8.85172982 11.30477759 8.85172982 7.25 9.3125 C3.22945347 8.92590899 1.17324483 7.41771035 -2 5 C-1.125 1.125 -1.125 1.125 0 0 Z " fill="#100E0C" transform="translate(35,101)"/>
<path d="M0 0 C2.62187494 1.04874998 3.79371361 1.64931313 5.25 4.125 C5.4975 4.74375 5.745 5.3625 6 6 C5.50628906 6.29132813 5.01257812 6.58265625 4.50390625 6.8828125 C0.10060881 9.63710714 0.10060881 9.63710714 -1.9375 14.3125 C-1.958125 15.199375 -1.97875 16.08625 -2 17 C-3.65 17 -5.3 17 -7 17 C-6.21086057 14.91570807 -5.41859037 12.83260131 -4.625 10.75 C-4.18414062 9.58984375 -3.74328125 8.4296875 -3.2890625 7.234375 C-2.29409145 4.73790219 -1.25589954 2.37095053 0 0 Z " fill="#D3D4D5" transform="translate(56,125)"/>
<path d="M0 0 C2.84323425 2.46802739 4.15880824 5.08454454 5.6875 8.5 C6.34298828 9.93859375 6.34298828 9.93859375 7.01171875 11.40625 C8 14 8 14 8 17 C6.35 17 4.7 17 3 17 C3.165 16.113125 3.33 15.22625 3.5 14.3125 C3.36757966 10.97626443 3.36757966 10.97626443 1.21875 9.48828125 C-0.81877131 8.23635355 -2.86524822 7.07690603 -5 6 C-3.35 4.02 -1.7 2.04 0 0 Z " fill="#D8D9DA" transform="translate(28,125)"/>
<path d="M0 0 C1.98 0 3.96 0 6 0 C6 1.65 6 3.3 6 5 C4.02 5 2.04 5 0 5 C0 3.35 0 1.7 0 0 Z " fill="#CCCECF" transform="translate(22,187)"/>
<path d="M0 0 C1.32 0.66 2.64 1.32 4 2 C3.67 3.32 3.34 4.64 3 6 C1.35 5.67 -0.3 5.34 -2 5 C-1.125 1.125 -1.125 1.125 0 0 Z " fill="#211C18" transform="translate(31,87)"/>
<path d="M0 0 C1.98 0.495 1.98 0.495 4 1 C3.67 2.65 3.34 4.3 3 6 C1.68 5.67 0.36 5.34 -1 5 C-0.67 3.35 -0.34 1.7 0 0 Z " fill="#171411" transform="translate(52,87)"/>
</svg>
