<?xml version="1.0" encoding="UTF-8"?>
<svg version="1.1" xmlns="http://www.w3.org/2000/svg" width="256" height="256">
<path d="M0 0 C10.56 0 21.12 0 32 0 C33.98 4.95 33.98 4.95 36 10 C38.68415613 12.2709059 38.68415613 12.2709059 41.875 13.25 C42.88304687 13.64703125 43.89109375 14.0440625 44.9296875 14.453125 C48.66632541 15.11868392 50.51927823 14.43591133 54 13 C55.98 12.34 57.96 11.68 60 11 C66.93 17.93 73.86 24.86 81 32 C79.99491159 35.01526522 78.98435176 38.03644836 77.73046875 40.95703125 C76.76216714 44.99075828 77.62584829 46.93502681 79.3125 50.6875 C79.78300781 51.80511719 80.25351563 52.92273437 80.73828125 54.07421875 C83.38230812 58.05604346 83.38230812 58.05604346 92 60 C92 70.56 92 81.12 92 92 C88.7 93.32 85.4 94.64 82 96 C79.7290941 98.68415613 79.7290941 98.68415613 78.75 101.875 C78.35296875 102.88304688 77.9559375 103.89109375 77.546875 104.9296875 C76.88131608 108.66632541 77.56408867 110.51927823 79 114 C79.66 115.98 80.32 117.96 81 120 C74.07 126.93 67.14 133.86 60 141 C56.98473478 139.99491159 53.96355164 138.98435176 51.04296875 137.73046875 C45.92376336 136.5015966 42.4431446 138.7574797 37.8828125 140.99609375 C34.78236944 143.15127978 33.84216677 144.33813238 32.6875 147.875 C32.3471875 149.916875 32.3471875 149.916875 32 152 C28.04 152 24.08 152 20 152 C19.99467183 158.74507942 20.02821746 165.48842937 20.09765625 172.2331543 C20.11581408 174.52703996 20.12338516 176.82103503 20.12011719 179.11499023 C20.11725963 182.41476043 20.15258169 185.71226266 20.1953125 189.01171875 C20.1816716 190.54792122 20.1816716 190.54792122 20.16775513 192.11515808 C20.1421429 197.26548506 20.1421429 197.26548506 22.35394287 201.72061157 C24.15296297 203.24990519 24.15296297 203.24990519 27 205 C28.86233425 208.72466849 28.57130829 212.94495313 28 217 C26.3279253 220.12578143 24.2143765 222.39281175 21 224 C16.90842645 224.51512617 12.76410454 224.94367269 9.04296875 222.953125 C6.14407364 220.55501226 4.20188165 218.60351712 3.7265625 214.828125 C3.41862446 207.01123631 3.41862446 207.01123631 6.375 203.4375 C9 201 9 201 11 200 C11.33 184.16 11.66 168.32 12 152 C8.04 152 4.08 152 0 152 C-0.61875 149.6796875 -0.61875 149.6796875 -1.25 147.3125 C-3.14995734 142.50793162 -5.17552457 140.84319067 -9.875 138.75 C-14.72174522 136.84105175 -17.21503187 136.98248223 -22 139 C-25.1875 140.25 -25.1875 140.25 -28 141 C-29.485 140.01 -29.485 140.01 -31 139 C-31.72703125 140.55847656 -31.72703125 140.55847656 -32.46875 142.1484375 C-38.73880042 155.31633405 -45.80680927 165.50171555 -58 174 C-58.66 174 -59.32 174 -60 174 C-60 180.27 -60 186.54 -60 193 C-58.02 193.66 -56.04 194.32 -54 195 C-52.20703125 196.2890625 -52.20703125 196.2890625 -50.8125 197.625 C-48.23150814 200.32259041 -48.23150814 200.32259041 -45 200 C-45.10183594 198.77925781 -45.20367187 197.55851563 -45.30859375 196.30078125 C-45.82934162 183.73501989 -45.82934162 183.73501989 -42.609375 178.92089844 C-37.94073115 173.89737457 -32.27102426 169.78249824 -26.26171875 166.5078125 C-23.94902148 165.21405498 -22.64551232 164.0716921 -21 162 C-20.40907306 159.91385841 -20.40907306 159.91385841 -20.3046875 157.64453125 C-20.20969971 156.41899536 -20.20969971 156.41899536 -20.11279297 155.16870117 C-19.94736182 151.43790647 -19.9373733 147.73411722 -20 144 C-17.36 144 -14.72 144 -12 144 C-9.62688855 162.99219346 -9.62688855 162.99219346 -13.34326172 169.26855469 C-17.94750096 174.48223635 -23.81304926 178.14430716 -29.77734375 181.6171875 C-32.74185094 183.4262278 -32.74185094 183.4262278 -35 186 C-36.00677888 190.84404467 -36.01298698 195.15757092 -35 200 C-33.21127792 202.61751412 -31.82219386 203.38731779 -29 205 C-27.13766575 208.72466849 -27.42869171 212.94495313 -28 217 C-29.6720747 220.12578143 -31.7856235 222.39281175 -35 224 C-35.33 231.92 -35.66 239.84 -36 248 C-75.6 248 -115.2 248 -156 248 C-156 234.77007798 -155.02580965 227.21867225 -147.171875 217.16796875 C-141.26039925 211.26712515 -134.83363126 207.70127055 -127.125 204.625 C-126.27164063 204.27050781 -125.41828125 203.91601562 -124.5390625 203.55078125 C-118.31476231 201 -118.31476231 201 -116 201 C-116 192.75 -116 184.5 -116 176 C-118.949375 176.12375 -121.89875 176.2475 -124.9375 176.375 C-131.6936807 176.47970707 -136.77137977 176.26171371 -142.30859375 171.99609375 C-149.44902489 163.56939557 -148.50333621 155.64214048 -148.40039062 144.96289062 C-148.41134766 143.74408203 -148.42230469 142.52527344 -148.43359375 141.26953125 C-148.42384521 140.16198486 -148.41409668 139.05443848 -148.40405273 137.91333008 C-149.19331021 134.05498948 -150.8701414 133.24581444 -154 131 C-157.76738508 125.41156975 -156.47045114 117.77137094 -155.40039062 111.46777344 C-154.59027422 107.74823897 -153.69131953 104.06343571 -152.75 100.375 C-152.44964844 99.12976563 -152.14929688 97.88453125 -151.83984375 96.6015625 C-147.72146783 79.9878588 -141.27719811 66.30685369 -127 56 C-111.3896763 47.33998709 -93.62794504 44.99602463 -76.25 49.625 C-71.88495991 51.08176639 -68.09197266 52.99392878 -64.125 55.3125 C-58.7750527 58.35959027 -58.7750527 58.35959027 -52.80078125 58.2734375 C-48.34478491 55.12234248 -46.26115937 49.12124999 -45 44 C-45.6434036 40.90824697 -45.6434036 40.90824697 -47 38 C-47.99 35.03 -47.99 35.03 -49 32 C-42.07 25.07 -35.14 18.14 -28 11 C-24.98473478 12.00508841 -21.96355164 13.01564824 -19.04296875 14.26953125 C-15.00924172 15.23783286 -13.06497319 14.37415171 -9.3125 12.6875 C-8.19488281 12.21699219 -7.07726562 11.74648437 -5.92578125 11.26171875 C-1.94395654 8.61769188 -1.94395654 8.61769188 0 0 Z " fill="#020201" transform="translate(160,4)"/>
<path d="M0 0 C5.94 0 11.88 0 18 0 C18.37125 1.381875 18.7425 2.76375 19.125 4.1875 C20.67264287 7.77240367 21.660834 8.83021044 25.20703125 10.60546875 C27.64947738 11.4366677 30.11111615 12.2139052 32.58984375 12.9296875 C36 14 36 14 38.7890625 15.6796875 C39.51867187 16.11539062 40.24828125 16.55109375 41 17 C43.50965614 16.29660434 43.50965614 16.29660434 46 15 C48.7890625 14.1015625 48.7890625 14.1015625 52 14 C54.36110078 15.66343358 56.00270727 17.0626099 57.9375 19.125 C58.44345703 19.61226562 58.94941406 20.09953125 59.47070312 20.6015625 C60.90234375 22.0703125 60.90234375 22.0703125 63 25 C62.92774295 28.07333318 61.95452755 30.10884517 60.76953125 32.9453125 C59.76136221 36.94728301 60.67489325 38.33769117 62.6875 41.875 C64.6552704 45.43467455 66.29575637 48.64390401 67.375 52.5625 C69.01523075 57.06489019 69.01523075 57.06489019 77 59 C77 64.94 77 70.88 77 77 C74.9271875 77.556875 74.9271875 77.556875 72.8125 78.125 C69.22759633 79.67264287 68.16978956 80.660834 66.39453125 84.20703125 C65.5633323 86.64947738 64.7860948 89.11111615 64.0703125 91.58984375 C63 95 63 95 61.3203125 97.7890625 C60.88460937 98.51867187 60.44890625 99.24828125 60 100 C60.70339566 102.50965614 60.70339566 102.50965614 62 105 C62.89453125 107.7890625 62.89453125 107.7890625 63 111 C61.35899756 113.36829961 59.9852482 114.99931285 57.9375 116.9375 C57.21916992 117.69643555 57.21916992 117.69643555 56.48632812 118.47070312 C55.02734375 119.90234375 55.02734375 119.90234375 52 122 C48.6275007 121.93539273 46.50229498 121.24606986 43.48828125 119.76953125 C40.92994697 118.70587473 40.92994697 118.70587473 38.16796875 120.01171875 C36.69263672 120.84123047 36.69263672 120.84123047 35.1875 121.6875 C31.60995795 123.64809878 28.36718771 125.29069728 24.4375 126.375 C19.93510981 128.01523075 19.93510981 128.01523075 18 136 C12.06 136 6.12 136 0 136 C-0.99 133.36 -1.98 130.72 -3 128 C-5.64281117 126.45380358 -7.53427901 125.56220077 -10.375 124.6875 C-17.676143 122.19912216 -17.676143 122.19912216 -20.7890625 120.28515625 C-23.03208699 118.63762297 -23.03208699 118.63762297 -26 119.75 C-26.99 120.1625 -27.98 120.575 -29 121 C-31.3203125 121.89453125 -31.3203125 121.89453125 -34 122 C-36.2784213 120.36865035 -37.96256757 118.92329293 -39.875 116.9375 C-40.38546875 116.45861328 -40.8959375 115.97972656 -41.421875 115.48632812 C-42.8671875 114.02734375 -42.8671875 114.02734375 -45 111 C-44.93963186 107.62369612 -44.24930852 105.50650656 -42.765625 102.4921875 C-41.70157546 99.92187584 -41.70157546 99.92187584 -43.046875 97.1328125 C-43.60890625 96.14023438 -44.1709375 95.14765625 -44.75 94.125 C-48.23054061 87.78683432 -48.23054061 87.78683432 -48.8125 84 C-50.25270139 80.36159648 -51.1592574 80.12019769 -54.625 78.5625 C-56.06875 78.046875 -57.5125 77.53125 -59 77 C-59 71.06 -59 65.12 -59 59 C-57.576875 58.731875 -56.15375 58.46375 -54.6875 58.1875 C-52.14874442 57.46180752 -52.14874442 57.46180752 -50 56 C-48.74758309 53.32009715 -48.23985268 50.82128307 -47.69140625 47.91796875 C-46.96543409 44.85412015 -45.86934376 42.82911592 -44.1875 40.1875 C-42.0988798 36.77166927 -42.0988798 36.77166927 -42.625 32.75 C-43.07875 31.8425 -43.5325 30.935 -44 30 C-44.90234375 27.6953125 -44.90234375 27.6953125 -45 25 C-43.36865035 22.7215787 -41.92329293 21.03743243 -39.9375 19.125 C-39.45861328 18.61453125 -38.97972656 18.1040625 -38.48632812 17.578125 C-37.02734375 16.1328125 -37.02734375 16.1328125 -34 14 C-30.62281038 14.06038398 -28.5042986 14.7521643 -25.48828125 16.234375 C-22.92601635 17.29843441 -22.92601635 17.29843441 -20.16796875 15.953125 C-19.18441406 15.39109375 -18.20085937 14.8290625 -17.1875 14.25 C-13.52389363 12.23321176 -10.58586076 10.73293262 -6.4375 10.1875 C-2.91099654 9.401173 -2.91099654 9.401173 -1.84765625 6.88671875 C-0.85927454 4.09700649 -0.85927454 4.09700649 0 0 Z " fill="#F9D56F" transform="translate(167,12)"/>
<path d="M0 0 C2.64 0 5.28 0 8 0 C8 2.64 8 5.28 8 8 C10.64 8 13.28 8 16 8 C16 5.36 16 2.72 16 0 C18.64 0 21.28 0 24 0 C24 2.64 24 5.28 24 8 C26.64 8 29.28 8 32 8 C32 5.36 32 2.72 32 0 C34.64 0 37.28 0 40 0 C40 2.64 40 5.28 40 8 C42.64 8 45.28 8 48 8 C48 5.36 48 2.72 48 0 C50.64 0 53.28 0 56 0 C56 2.64 56 5.28 56 8 C58.64 8 61.28 8 64 8 C64 10.64 64 13.28 64 16 C66.64 16 69.28 16 72 16 C72 18.64 72 21.28 72 24 C69.36 24 66.72 24 64 24 C64 26.64 64 29.28 64 32 C66.64 32 69.28 32 72 32 C72 34.64 72 37.28 72 40 C69.36 40 66.72 40 64 40 C64 42.64 64 45.28 64 48 C66.64 48 69.28 48 72 48 C72 50.64 72 53.28 72 56 C69.36 56 66.72 56 64 56 C64 58.64 64 61.28 64 64 C66.64 64 69.28 64 72 64 C72 66.64 72 69.28 72 72 C69.36 72 66.72 72 64 72 C64 74.64 64 77.28 64 80 C61.36 80 58.72 80 56 80 C56 82.64 56 85.28 56 88 C53.36 88 50.72 88 48 88 C48 85.36 48 82.72 48 80 C45.36 80 42.72 80 40 80 C40 82.64 40 85.28 40 88 C37.36 88 34.72 88 32 88 C32 85.36 32 82.72 32 80 C29.36 80 26.72 80 24 80 C24 82.64 24 85.28 24 88 C21.36 88 18.72 88 16 88 C16 85.36 16 82.72 16 80 C13.36 80 10.72 80 8 80 C8 82.64 8 85.28 8 88 C5.36 88 2.72 88 0 88 C0 85.36 0 82.72 0 80 C-2.64 80 -5.28 80 -8 80 C-8 77.36 -8 74.72 -8 72 C-10.64 72 -13.28 72 -16 72 C-16 69.36 -16 66.72 -16 64 C-13.36 64 -10.72 64 -8 64 C-8 61.36 -8 58.72 -8 56 C-10.64 56 -13.28 56 -16 56 C-16 53.36 -16 50.72 -16 48 C-13.36 48 -10.72 48 -8 48 C-8 45.36 -8 42.72 -8 40 C-10.64 40 -13.28 40 -16 40 C-16 37.36 -16 34.72 -16 32 C-13.36 32 -10.72 32 -8 32 C-8 29.36 -8 26.72 -8 24 C-10.64 24 -13.28 24 -16 24 C-16 21.36 -16 18.72 -16 16 C-13.36 16 -10.72 16 -8 16 C-8 13.36 -8 10.72 -8 8 C-5.36 8 -2.72 8 0 8 C0 5.36 0 2.72 0 0 Z " fill="#000000" transform="translate(148,36)"/>
<path d="M0 0 C2.15262016 2.68436859 2.04237043 5.72853415 2.39453125 9.06640625 C3.4008586 12.57138093 3.4008586 12.57138093 9.3125 16.63671875 C9.3125 22.24671875 9.3125 27.85671875 9.3125 33.63671875 C-24.6775 33.63671875 -58.6675 33.63671875 -93.6875 33.63671875 C-92.59140615 23.77187414 -90.83462297 19.29734617 -83.62109375 12.765625 C-64.37038256 -0.96676041 -20.2538137 -16.36245598 0 0 Z " fill="#4EBFE7" transform="translate(106.6875,210.36328125)"/>
<path d="M0 0 C5.46261638 -0.07428762 10.92493716 -0.12866714 16.38793945 -0.16479492 C18.24541345 -0.17985946 20.10285201 -0.20031509 21.96020508 -0.22631836 C24.63371539 -0.26280459 27.30675444 -0.2797497 29.98046875 -0.29296875 C31.2213752 -0.31619453 31.2213752 -0.31619453 32.48735046 -0.33988953 C37.18185331 -0.34125254 40.16697456 -0.0043845 44 3 C46.375 5.4375 46.375 5.4375 48 8 C47.8359375 9.9921875 47.8359375 9.9921875 47 12 C45.328125 13.38671875 45.328125 13.38671875 43.25 14.6875 C37.74429554 18.56225071 35.09755312 23.70734063 33 30 C31.8707443 39.1341062 33.52212535 46.51910452 39 54 C41.37460579 55.66702849 41.37460579 55.66702849 43.875 57.0625 C46.07592773 58.51098633 46.07592773 58.51098633 48 61 C48.51348636 64.26134317 48.38807665 67.45502618 48.2578125 70.74609375 C48.23920166 71.63453979 48.22059082 72.52298584 48.20141602 73.43835449 C48.15289952 75.62674252 48.08513978 77.81278098 48 80 C42.43167699 80.14889585 36.86452532 80.2574727 31.29467773 80.32958984 C29.40221967 80.35966736 27.50989991 80.40054133 25.61791992 80.45263672 C22.88946343 80.52585497 20.16285717 80.55954542 17.43359375 80.5859375 C16.59477158 80.61690521 15.7559494 80.64787292 14.89170837 80.67977905 C9.2844126 80.68295429 6.39696867 79.41634471 2.29725647 75.58486938 C-0.5806317 72.06892867 -0.08154851 68.32207124 0 64 C1.19496094 63.94392578 1.19496094 63.94392578 2.4140625 63.88671875 C9.60486213 63.44057425 14.95073008 63.04926992 20.25 57.75 C22.32690534 54.48629161 23.11726557 51.75162134 24 48 C21.36 48 18.72 48 16 48 C15.7525 48.94875 15.505 49.8975 15.25 50.875 C14 54 14 54 12.25 55.1875 C9.6096444 56.14096174 7.54967974 56.19867578 4.75 56.125 C3.1825 56.08375 1.615 56.0425 0 56 C0 51.05 0 46.1 0 41 C-1.98 40.34 -3.96 39.68 -6 39 C-9.14076519 34.28885221 -7.46488765 29.49074654 -6.47314453 24.17724609 C-5.86734623 21.1731436 -5.22179857 18.18029262 -4.5625 15.1875 C-4.34529297 14.16462891 -4.12808594 13.14175781 -3.90429688 12.08789062 C-3.68966797 11.10369141 -3.47503906 10.11949219 -3.25390625 9.10546875 C-3.06127197 8.22012451 -2.8686377 7.33478027 -2.67016602 6.42260742 C-2.02216163 4.0801129 -1.16557178 2.12581767 0 0 Z " fill="#E4E7EB" transform="translate(20,92)"/>
<path d="M0 0 C2.64 0 5.28 0 8 0 C8 2.64 8 5.28 8 8 C10.64 8 13.28 8 16 8 C16 5.36 16 2.72 16 0 C18.64 0 21.28 0 24 0 C24 2.64 24 5.28 24 8 C26.64 8 29.28 8 32 8 C32 5.36 32 2.72 32 0 C34.64 0 37.28 0 40 0 C40 2.64 40 5.28 40 8 C42.64 8 45.28 8 48 8 C48 5.36 48 2.72 48 0 C50.64 0 53.28 0 56 0 C56 2.64 56 5.28 56 8 C58.64 8 61.28 8 64 8 C64 10.64 64 13.28 64 16 C66.64 16 69.28 16 72 16 C72 18.64 72 21.28 72 24 C69.36 24 66.72 24 64 24 C64 26.64 64 29.28 64 32 C66.64 32 69.28 32 72 32 C72 34.64 72 37.28 72 40 C69.36 40 66.72 40 64 40 C64 42.64 64 45.28 64 48 C66.64 48 69.28 48 72 48 C72 50.64 72 53.28 72 56 C69.36 56 66.72 56 64 56 C64 58.64 64 61.28 64 64 C66.64 64 69.28 64 72 64 C72 66.64 72 69.28 72 72 C69.36 72 66.72 72 64 72 C64 74.64 64 77.28 64 80 C61.36 80 58.72 80 56 80 C56 82.64 56 85.28 56 88 C53.36 88 50.72 88 48 88 C48 85.36 48 82.72 48 80 C45.36 80 42.72 80 40 80 C40 82.64 40 85.28 40 88 C37.36 88 34.72 88 32 88 C32 85.36 32 82.72 32 80 C29.36 80 26.72 80 24 80 C24 82.64 24 85.28 24 88 C21.36 88 18.72 88 16 88 C16 85.36 16 82.72 16 80 C13.36 80 10.72 80 8 80 C8 82.64 8 85.28 8 88 C5.36 88 2.72 88 0 88 C0 85.36 0 82.72 0 80 C-2.64 80 -5.28 80 -8 80 C-8 77.36 -8 74.72 -8 72 C-10.64 72 -13.28 72 -16 72 C-16 69.36 -16 66.72 -16 64 C-13.36 64 -10.72 64 -8 64 C-8 61.36 -8 58.72 -8 56 C-10.64 56 -13.28 56 -16 56 C-16 53.36 -16 50.72 -16 48 C-13.36 48 -10.72 48 -8 48 C-8 45.36 -8 42.72 -8 40 C-10.64 40 -13.28 40 -16 40 C-16 37.36 -16 34.72 -16 32 C-13.36 32 -10.72 32 -8 32 C-8 29.36 -8 26.72 -8 24 C-10.64 24 -13.28 24 -16 24 C-16 21.36 -16 18.72 -16 16 C-13.36 16 -10.72 16 -8 16 C-8 13.36 -8 10.72 -8 8 C-5.36 8 -2.72 8 0 8 C0 5.36 0 2.72 0 0 Z M0 16 C0 34.48 0 52.96 0 72 C18.48 72 36.96 72 56 72 C56 53.52 56 35.04 56 16 C37.52 16 19.04 16 0 16 Z " fill="#000000" transform="translate(148,36)"/>
<path d="M0 0 C18.48 0 36.96 0 56 0 C56 18.48 56 36.96 56 56 C37.52 56 19.04 56 0 56 C0 37.52 0 19.04 0 0 Z M8 8 C8 21.2 8 34.4 8 48 C21.2 48 34.4 48 48 48 C48 34.8 48 21.6 48 8 C34.8 8 21.6 8 8 8 Z " fill="#CCD1D9" transform="translate(148,52)"/>
<path d="M0 0 C4.46341087 3.02306065 7.39332313 7.3440319 9.08203125 12.41015625 C9.82415958 19.25963577 9.16620512 24.75029802 5.08203125 30.41015625 C0.51892243 35.44752076 -4.61218975 37.42991757 -11.29296875 37.78515625 C-16.88258749 37.63459413 -21.3466894 35.792179 -25.45703125 31.984375 C-30.17841306 26.64175874 -31.40910292 21.93978381 -31.22265625 14.96875 C-30.61182087 9.83929904 -28.77615593 6.12626875 -24.9765625 2.6171875 C-17.03773873 -3.53795948 -9.13902402 -4.46547759 0 0 Z " fill="#ADD57A" transform="translate(90.91796875,110.58984375)"/>
<path d="M0 0 C1.35726204 2.65522623 2.68247492 5.32487303 4 8 C4.433125 8.845625 4.86625 9.69125 5.3125 10.5625 C6.81950036 15.90550127 4.73770892 20.93643016 3 26 C3.67289063 26.54527344 4.34578125 27.09054688 5.0390625 27.65234375 C11.76616475 33.59698849 11.76616475 33.59698849 12.36328125 37.1796875 C11.86792614 39.66100757 11.05839108 41.69946938 10 44 C9.608125 44.95132813 9.21625 45.90265625 8.8125 46.8828125 C4.1616115 57.2151841 -4.58594482 68.79297241 -15 74 C-16.44848582 74.08342159 -17.90070869 74.10732861 -19.3515625 74.09765625 C-20.20234375 74.09443359 -21.053125 74.09121094 -21.9296875 74.08789062 C-22.81914063 74.07951172 -23.70859375 74.07113281 -24.625 74.0625 C-25.5221875 74.05798828 -26.419375 74.05347656 -27.34375 74.04882812 C-29.56252831 74.03702611 -31.78127243 74.01909039 -34 74 C-34 68.72 -34 63.44 -34 58 C-32.040625 57.773125 -30.08125 57.54625 -28.0625 57.3125 C-20.24082398 56.09541657 -14.85072464 53.7873752 -9.1875 48.25 C-3.51185492 39.81761302 -1.69177552 32.74773722 -3.40234375 22.6171875 C-5.15162568 16.05452195 -9.2916233 11.73074428 -14 7 C-9.43166501 2.17786862 -6.76869549 -0.37603864 0 0 Z " fill="#C9CED5" transform="translate(110,98)"/>
<path d="M0 0 C2.64 0 5.28 0 8 0 C8 5.94 8 11.88 8 18 C9.32 18.66 10.64 19.32 12 20 C22.85309304 25.59964918 22.85309304 25.59964918 24.63464355 30.8815918 C25.49761485 36.1406845 25.15837281 41.45136112 24.875 46.75 C24.78042904 49.13502167 24.70385046 51.51732662 24.66189575 53.90386963 C24.63280486 55.37962186 24.57230247 56.8551991 24.47555542 58.32806396 C24.39468444 61.16080073 24.41662568 63.32924696 26.32720947 65.52600098 C27.8288515 66.75569297 29.41210607 67.88390679 31 69 C32.86233425 72.72466849 32.57130829 76.94495313 32 81 C30.3279253 84.12578143 28.2143765 86.39281175 25 88 C20.90842645 88.51512617 16.76410454 88.94367269 13.04296875 86.953125 C10.14407364 84.55501226 8.20188165 82.60351712 7.7265625 78.828125 C7.41862446 71.01123631 7.41862446 71.01123631 10.375 67.4375 C13 65 13 65 15 64 C15.33 54.1 15.66 44.2 16 34 C13.6814149 32.84070745 11.34876808 31.70728306 8.984375 30.64453125 C5.28069371 28.54667313 2.13964388 26.72936175 0 23 C-1.54790654 15.48277302 -0.73376407 7.58505088 0 0 Z " fill="#000000" transform="translate(188,164)"/>
<path d="M0 0 C2.64 0 5.28 0 8 0 C10.22565624 19.4023417 10.22565624 19.4023417 6.65820312 25.16894531 C3.01618417 29.02998602 -1.25994009 31.67543825 -6 34 C-6.66 34 -7.32 34 -8 34 C-8.00534445 38.18203241 -7.9715914 42.361417 -7.90234375 46.54272461 C-7.88422993 47.96352731 -7.87660693 49.38450554 -7.87988281 50.80541992 C-8.22749222 58.77889813 -8.22749222 58.77889813 -5.64160156 66.00244141 C-3.87023497 67.52359266 -3.87023497 67.52359266 -1 69 C0.86233425 72.72466849 0.57130829 76.94495313 0 81 C-1.6720747 84.12578143 -3.7856235 86.39281175 -7 88 C-11.09157355 88.51512617 -15.23589546 88.94367269 -18.95703125 86.953125 C-21.85592636 84.55501226 -23.79811835 82.60351712 -24.2734375 78.828125 C-24.58137554 71.01123631 -24.58137554 71.01123631 -21.625 67.4375 C-19 65 -19 65 -17 64 C-17.04302246 62.99735107 -17.08604492 61.99470215 -17.13037109 60.96166992 C-18.25389808 30.56503257 -18.25389808 30.56503257 -12.88671875 24.2265625 C-9.34030698 21.14536796 -4.843782 18 0 18 C0 12.06 0 6.12 0 0 Z " fill="#000000" transform="translate(156,164)"/>
<path d="M0 0 C2.64 0 5.28 0 8 0 C7.91685547 1.79244141 7.91685547 1.79244141 7.83203125 3.62109375 C7.5293941 12.75736111 7.5293941 12.75736111 11.09375 20.84765625 C13.96509496 23.12080434 16.87540979 25.08947103 20 27 C31.29614263 34.00596999 31.29614263 34.00596999 32.52148438 39.21826172 C32.85758624 42.61221834 32.92788764 45.90704232 32.72900391 49.31201172 C32.38126811 53.7787146 32.38126811 53.7787146 34.30566406 57.61474609 C36.128377 59.13990316 36.128377 59.13990316 39 61 C40.86233425 64.72466849 40.57130829 68.94495313 40 73 C38.3279253 76.12578143 36.2143765 78.39281175 33 80 C28.90842645 80.51512617 24.76410454 80.94367269 21.04296875 78.953125 C18.14407364 76.55501226 16.20188165 74.60351712 15.7265625 70.828125 C15.41862446 63.01123631 15.41862446 63.01123631 18.375 59.4375 C21 57 21 57 23 56 C23.67958699 51.1742459 23.89419298 46.80820338 23 42 C19.19003775 37.14762034 13.8925841 34.090789 8.59765625 31.0390625 C1.87618872 26.6113657 1.87618872 26.6113657 0 23 C-1.4597625 15.44487238 -0.74214482 7.6098388 0 0 Z " fill="#000000" transform="translate(204,148)"/>
<path d="M0 0 C13.2 0 26.4 0 40 0 C40 5.28 40 10.56 40 16 C38.50210938 16.18175781 37.00421875 16.36351562 35.4609375 16.55078125 C25.38139652 17.80274689 15.43722012 19.09724644 5.546875 21.44921875 C3 22 3 22 0 22 C0 14.74 0 7.48 0 0 Z " fill="#E4E7EB" transform="translate(52,180)"/>
<path d="M0 0 C1.75570312 0.01353516 1.75570312 0.01353516 3.546875 0.02734375 C4.43890625 0.03894531 5.3309375 0.05054688 6.25 0.0625 C4.87539147 2.98845245 3.2640382 5.50677348 1.375 8.125 C-2.46045452 13.79561908 -2.46045452 13.79561908 -5.75 24.0625 C-16.97 24.0625 -28.19 24.0625 -39.75 24.0625 C-35.86306216 14.34515541 -28.8811183 8.89059481 -19.75 4.0625 C-16.79307892 2.83382503 -13.84887729 1.86023079 -10.75 1.0625 C-10.14542969 0.87558594 -9.54085937 0.68867187 -8.91796875 0.49609375 C-5.92400953 -0.10269809 -3.04957706 -0.03049577 0 0 Z " fill="#C8CDD5" transform="translate(63.75,59.9375)"/>
<path d="M0 0 C7.92 0 15.84 0 24 0 C24 7.92 24 15.84 24 24 C16.08 24 8.16 24 0 24 C0 16.08 0 8.16 0 0 Z " fill="#E6E9ED" transform="translate(164,68)"/>
<path d="M0 0 C4.08998175 1.80720124 6.66247347 4.19069751 9 8 C9.62819266 13.0255413 9.03320735 15.95572354 6 20 C3.24705395 23.21177039 0.96958591 23.86947882 -3.25 24.4375 C-8.1843364 23.86182742 -10.79803186 21.71753928 -14 18 C-15.23534045 14.29397865 -15.45528745 11.90246386 -15 8 C-10.91704021 1.64314568 -7.65816344 -0.51919752 0 0 Z " fill="#040603" transform="translate(83,116)"/>
<path d="M0 0 C4.81969711 1.63379563 9.22532523 3.81690269 13.6875 6.25 C11.27742543 8.92342709 8.66504643 10.51373021 5.5625 12.3125 C-0.71309556 16.21805681 -6.94659828 21.51819656 -10.3125 28.25 C-10.9725 28.25 -11.6325 28.25 -12.3125 28.25 C-12.3125 27.59 -12.3125 26.93 -12.3125 26.25 C-14.7875 25.26 -14.7875 25.26 -17.3125 24.25 C-16.20655934 15.49249315 -11.63531237 7.32377718 -5.0859375 1.375 C-3.3125 0.25 -3.3125 0.25 0 0 Z " fill="#929BA5" transform="translate(82.3125,62.75)"/>
<path d="M0 0 C1.79067358 12.58445596 1.79067358 12.58445596 -2.25 18.03515625 C-7.60707323 22.43660574 -11.73932644 24.6049926 -18.75 24.0625 C-20.5093223 23.75800191 -22.26497466 23.42145119 -24 23 C-20.18996264 12.55903223 -12.39197689 5.93464739 -2.76171875 0.80859375 C-1 0 -1 0 0 0 Z " fill="#929BA6" transform="translate(100,77)"/>
<path d="M0 0 C2.625 0.375 2.625 0.375 5 1 C5.625 3.375 5.625 3.375 6 6 C5.34 6.66 4.68 7.32 4 8 C1.375 7.625 1.375 7.625 -1 7 C-1.625 4.625 -1.625 4.625 -2 2 C-1.34 1.34 -0.68 0.68 0 0 Z " fill="#EE7966" transform="translate(206,236)"/>
<path d="M0 0 C2.625 0.375 2.625 0.375 5 1 C5.625 3.375 5.625 3.375 6 6 C5.34 6.66 4.68 7.32 4 8 C1.375 7.625 1.375 7.625 -1 7 C-1.625 4.625 -1.625 4.625 -2 2 C-1.34 1.34 -0.68 0.68 0 0 Z " fill="#EE7966" transform="translate(142,236)"/>
<path d="M0 0 C2.625 0.375 2.625 0.375 5 1 C5.625 3.375 5.625 3.375 6 6 C5.34 6.66 4.68 7.32 4 8 C1.375 7.625 1.375 7.625 -1 7 C-1.625 4.625 -1.625 4.625 -2 2 C-1.34 1.34 -0.68 0.68 0 0 Z " fill="#EE7966" transform="translate(230,212)"/>
<path d="M0 0 C2.625 0.375 2.625 0.375 5 1 C5.625 3.375 5.625 3.375 6 6 C5.34 6.66 4.68 7.32 4 8 C1.375 7.625 1.375 7.625 -1 7 C-1.625 4.625 -1.625 4.625 -2 2 C-1.34 1.34 -0.68 0.68 0 0 Z " fill="#EE7966" transform="translate(174,212)"/>
<path d="M0 0 C2.625 0.375 2.625 0.375 5 1 C5.625 3.375 5.625 3.375 6 6 C5.34 6.66 4.68 7.32 4 8 C1.375 7.625 1.375 7.625 -1 7 C-1.625 4.625 -1.625 4.625 -2 2 C-1.34 1.34 -0.68 0.68 0 0 Z " fill="#EE7966" transform="translate(118,212)"/>
<path d="M0 0 C2.625 0.375 2.625 0.375 5 1 C5.625 3.375 5.625 3.375 6 6 C5.34 6.66 4.68 7.32 4 8 C1.375 7.625 1.375 7.625 -1 7 C-1.625 4.625 -1.625 4.625 -2 2 C-1.34 1.34 -0.68 0.68 0 0 Z " fill="#95C661" transform="translate(78,124)"/>
<path d="M0 0 C2.625 0.375 2.625 0.375 5 1 C5.625 3.375 5.625 3.375 6 6 C5.34 6.66 4.68 7.32 4 8 C1.375 7.625 1.375 7.625 -1 7 C-1.625 4.625 -1.625 4.625 -2 2 C-1.34 1.34 -0.68 0.68 0 0 Z " fill="#0E0E0F" transform="translate(30,108)"/>
</svg>
